<?xml version="1.0" encoding="UTF-8"?>
<svg width="120px" height="43px" viewBox="0 0 120 43" version="1.1" xmlns="http://www.w3.org/2000/svg" xmlns:xlink="http://www.w3.org/1999/xlink">
    <!-- Generator: Sketch 42 (36781) - http://www.bohemiancoding.com/sketch -->
    <title>logo_04</title>
    <desc>Created with Sketch.</desc>
    <defs>
        <polygon id="path-1" points="12.8789 12 0.9349 12 0.9349 0.4434 12.8789 0.4434 12.8789 12"></polygon>
    </defs>
    <g id="Landing-Page" stroke="none" stroke-width="1" fill="none" fill-rule="evenodd">
        <g id="Page-1">
            <path d="M38.8368,22.0541 L37.4428,25.8181 L40.2008,25.8181 L38.8368,22.0541 Z M41.7808,30.0941 L40.9288,27.9411 L36.6848,27.9411 L35.8788,30.0941 L32.9978,30.0941 L37.5988,19.1261 L40.1698,19.1261 L44.7248,30.0941 L41.7808,30.0941 Z" id="Fill-1" fill="#00A5E2"></path>
            <g id="Group-41" transform="translate(0.000000, 0.781500)">
                <path d="M52.7235,23.7975 C52.7235,23.1775 52.6225,22.6645 52.4205,22.2565 C52.2195,21.8485 51.9515,21.5235 51.6155,21.2795 C51.2795,21.0375 50.8975,20.8645 50.4685,20.7615 C50.0395,20.6585 49.5985,20.6065 49.1445,20.6065 L47.8275,20.6065 L47.8275,27.0195 L49.0825,27.0195 C49.5575,27.0195 50.0145,26.9655 50.4525,26.8575 C50.8915,26.7485 51.2795,26.5705 51.6155,26.3225 C51.9515,26.0745 52.2195,25.7445 52.4205,25.3315 C52.6225,24.9185 52.7235,24.4075 52.7235,23.7975 M55.4805,23.7975 C55.4805,24.7575 55.3025,25.5865 54.9465,26.2845 C54.5895,26.9815 54.1195,27.5545 53.5355,28.0035 C52.9525,28.4525 52.2945,28.7835 51.5615,28.9955 C50.8275,29.2075 50.0835,29.3125 49.3305,29.3125 L45.2415,29.3125 L45.2415,18.3445 L49.2065,18.3445 C49.9815,18.3445 50.7445,18.4355 51.4985,18.6155 C52.2525,18.7965 52.9245,19.0955 53.5125,19.5145 C54.1015,19.9325 54.5765,20.4925 54.9385,21.1945 C55.2995,21.8975 55.4805,22.7645 55.4805,23.7975" id="Fill-2" fill="#00A5E2"></path>
                <polygon id="Fill-4" fill="#00A5E2" points="62.2802 29.3127 59.6322 29.3127 55.4802 18.3447 58.4552 18.3447 60.9952 26.1217 61.0562 26.1217 63.5832 18.3447 66.5102 18.3447"></polygon>
                <path d="M75.6191,23.7824 C75.6191,23.3074 75.5421,22.8634 75.3871,22.4494 C75.2321,22.0364 75.0171,21.6824 74.7441,21.3884 C74.4711,21.0944 74.1401,20.8624 73.7531,20.6914 C73.3651,20.5214 72.9391,20.4364 72.4741,20.4364 C72.0101,20.4364 71.5861,20.5214 71.2041,20.6914 C70.8221,20.8624 70.4911,21.0944 70.2131,21.3884 C69.9341,21.6824 69.7201,22.0364 69.5691,22.4494 C69.4201,22.8634 69.3451,23.3074 69.3451,23.7824 C69.3451,24.2784 69.4231,24.7354 69.5771,25.1534 C69.7321,25.5714 69.9461,25.9304 70.2201,26.2294 C70.4941,26.5294 70.8221,26.7644 71.2041,26.9344 C71.5861,27.1054 72.0101,27.1904 72.4741,27.1904 C72.9391,27.1904 73.3621,27.1054 73.7451,26.9344 C74.1271,26.7644 74.4581,26.5294 74.7361,26.2294 C75.0151,25.9304 75.2321,25.5714 75.3871,25.1534 C75.5421,24.7354 75.6191,24.2784 75.6191,23.7824 M78.4541,23.7824 C78.4541,24.6494 78.3041,25.4424 78.0051,26.1604 C77.7051,26.8784 77.2901,27.4924 76.7581,28.0034 C76.2261,28.5144 75.5931,28.9094 74.8601,29.1894 C74.1271,29.4674 73.3311,29.6064 72.4741,29.6064 C71.6171,29.6064 70.8241,29.4674 70.0971,29.1894 C69.3681,28.9094 68.7381,28.5144 68.2061,28.0034 C67.6751,27.4924 67.2591,26.8784 66.9591,26.1604 C66.6591,25.4424 66.5101,24.6494 66.5101,23.7824 C66.5101,22.9044 66.6591,22.1124 66.9591,21.4044 C67.2591,20.6974 67.6751,20.0954 68.2061,19.5994 C68.7381,19.1034 69.3681,18.7214 70.0971,18.4524 C70.8241,18.1844 71.6171,18.0504 72.4741,18.0504 C73.3311,18.0504 74.1271,18.1844 74.8601,18.4524 C75.5931,18.7214 76.2261,19.1034 76.7581,19.5994 C77.2901,20.0954 77.7051,20.6974 78.0051,21.4044 C78.3041,22.1124 78.4541,22.9044 78.4541,23.7824" id="Fill-6" fill="#00A5E2"></path>
                <path d="M87.8271,29.1188 C87.1141,29.4438 86.2941,29.6068 85.3641,29.6068 C84.5161,29.6068 83.7341,29.4678 83.0161,29.1888 C82.2991,28.9098 81.6771,28.5148 81.1501,28.0038 C80.6231,27.4928 80.2111,26.8808 79.9111,26.1678 C79.6111,25.4548 79.4621,24.6708 79.4621,23.8128 C79.4621,22.9358 79.6131,22.1398 79.9191,21.4278 C80.2231,20.7148 80.6431,20.1088 81.1811,19.6068 C81.7181,19.1068 82.3481,18.7218 83.0711,18.4528 C83.7941,18.1848 84.5731,18.0498 85.4101,18.0498 C86.1841,18.0498 86.9461,18.1878 87.6951,18.4608 C88.4441,18.7348 89.0511,19.1348 89.5151,19.6608 L87.7191,21.4588 C87.4711,21.1178 87.1451,20.8648 86.7431,20.6998 C86.3401,20.5348 85.9271,20.4518 85.5031,20.4518 C85.0391,20.4518 84.6131,20.5368 84.2251,20.7068 C83.8381,20.8778 83.5051,21.1128 83.2261,21.4118 C82.9471,21.7118 82.7301,22.0648 82.5751,22.4728 C82.4211,22.8808 82.3431,23.3278 82.3431,23.8128 C82.3431,24.3088 82.4211,24.7638 82.5751,25.1768 C82.7301,25.5898 82.9441,25.9428 83.2181,26.2378 C83.4921,26.5318 83.8201,26.7618 84.2021,26.9268 C84.5841,27.0928 85.0021,27.1748 85.4571,27.1748 C85.9831,27.1748 86.4421,27.0718 86.8351,26.8658 C87.2271,26.6588 87.5421,26.3898 87.7801,26.0598 L89.6241,27.7948 C89.1391,28.3518 88.5391,28.7938 87.8271,29.1188" id="Fill-8" fill="#00A5E2"></path>
                <path d="M95.4638,21.2726 L94.0688,25.0366 L96.8268,25.0366 L95.4638,21.2726 Z M98.4068,29.3126 L97.5558,27.1596 L93.3108,27.1596 L92.5048,29.3126 L89.6238,29.3126 L94.2248,18.3446 L96.7968,18.3446 L101.3508,29.3126 L98.4068,29.3126 Z" id="Fill-10" fill="#00A5E2"></path>
                <polygon id="Fill-12" fill="#00A5E2" points="105.4042 20.6066 105.4042 29.3126 102.7552 29.3126 102.7552 20.6066 99.6562 20.6066 99.6562 18.3446 108.5022 18.3446 108.5022 20.6066"></polygon>
                <polygon id="Fill-14" fill="#00A5E2" points="109.7109 29.3127 109.7109 18.3447 117.0849 18.3447 117.0849 20.5757 112.2669 20.5757 112.2669 22.6507 116.8209 22.6507 116.8209 24.7737 112.2669 24.7737 112.2669 27.0507 117.3629 27.0507 117.3629 29.3127"></polygon>
                <polygon id="Fill-16" fill="#00A5E2" points="24.0429 41.7057 24.0429 30.7377 31.4169 30.7377 31.4169 32.9687 26.5999 32.9687 26.5999 35.0437 31.1539 35.0437 31.1539 37.1667 26.5999 37.1667 26.5999 39.4437 31.6959 39.4437 31.6959 41.7057"></polygon>
                <path d="M41.7265,39.3747 C41.5045,39.9167 41.1865,40.3817 40.7735,40.7687 C40.3605,41.1557 39.8625,41.4577 39.2795,41.6747 C38.6955,41.8917 38.0465,41.9997 37.3345,41.9997 C36.6125,41.9997 35.9605,41.8917 35.3825,41.6747 C34.8045,41.4577 34.3135,41.1557 33.9115,40.7687 C33.5085,40.3817 33.1985,39.9167 32.9815,39.3747 C32.7645,38.8327 32.6565,38.2307 32.6565,37.5697 L32.6565,30.7377 L35.2895,30.7377 L35.2895,37.3527 C35.2895,37.6527 35.3295,37.9367 35.4065,38.2047 C35.4835,38.4737 35.6025,38.7137 35.7625,38.9247 C35.9225,39.1367 36.1335,39.3047 36.3975,39.4287 C36.6615,39.5527 36.9785,39.6147 37.3505,39.6147 C37.7215,39.6147 38.0395,39.5527 38.3025,39.4287 C38.5665,39.3047 38.7805,39.1367 38.9465,38.9247 C39.1115,38.7137 39.2295,38.4737 39.3015,38.2047 C39.3735,37.9367 39.4115,37.6527 39.4115,37.3527 L39.4115,30.7377 L42.0595,30.7377 L42.0595,37.5697 C42.0595,38.2307 41.9485,38.8327 41.7265,39.3747" id="Fill-18" fill="#00A5E2"></path>
                <path d="M49.2792,34.0998 C49.2792,33.8418 49.2242,33.6328 49.1152,33.4728 C49.0072,33.3118 48.8662,33.1878 48.6952,33.0998 C48.5232,33.0128 48.3322,32.9538 48.1192,32.9218 C47.9062,32.8918 47.7012,32.8758 47.5052,32.8758 L46.0882,32.8758 L46.0882,35.4318 L47.3482,35.4318 C47.5662,35.4318 47.7902,35.4138 48.0182,35.3778 C48.2462,35.3418 48.4542,35.2768 48.6402,35.1838 C48.8282,35.0908 48.9802,34.9568 49.1002,34.7808 C49.2192,34.6058 49.2792,34.3778 49.2792,34.0998 L49.2792,34.0998 Z M49.3872,41.7058 L47.0072,37.3528 L46.1032,37.3528 L46.1032,41.7058 L43.5162,41.7058 L43.5162,30.7378 L47.6992,30.7378 C48.2252,30.7378 48.7392,30.7918 49.2402,30.9008 C49.7412,31.0088 50.1902,31.1918 50.5882,31.4508 C50.9852,31.7088 51.3032,32.0498 51.5412,32.4728 C51.7782,32.8968 51.8972,33.4238 51.8972,34.0528 C51.8972,34.7968 51.6962,35.4218 51.2932,35.9278 C50.8902,36.4328 50.3322,36.7948 49.6202,37.0118 L52.4862,41.7058 L49.3872,41.7058 Z" id="Fill-20" fill="#00A5E2"></path>
                <g id="Group-24" transform="translate(52.000000, 30.000000)">
                    <mask id="mask-2" fill="white">
                        <use xlink:href="#path-1"></use>
                    </mask>
                    <g id="Clip-23"></g>
                    <path d="M10.0439,6.1754 C10.0439,5.7004 9.9669,5.2564 9.8119,4.8424 C9.6569,4.4304 9.4419,4.0764 9.1689,3.7814 C8.8959,3.4874 8.5649,3.2554 8.1769,3.0844 C7.7899,2.9144 7.3639,2.8294 6.8989,2.8294 C6.4349,2.8294 6.0109,2.9144 5.6289,3.0844 C5.2469,3.2554 4.9159,3.4874 4.6379,3.7814 C4.3579,4.0764 4.1449,4.4304 3.9939,4.8424 C3.8449,5.2564 3.7699,5.7004 3.7699,6.1754 C3.7699,6.6714 3.8479,7.1284 4.0019,7.5464 C4.1569,7.9644 4.3709,8.3234 4.6459,8.6234 C4.9189,8.9234 5.2469,9.1574 5.6289,9.3274 C6.0109,9.4984 6.4349,9.5834 6.8989,9.5834 C7.3639,9.5834 7.7869,9.4984 8.1699,9.3274 C8.5519,9.1574 8.8819,8.9234 9.1609,8.6234 C9.4399,8.3234 9.6569,7.9644 9.8119,7.5464 C9.9669,7.1284 10.0439,6.6714 10.0439,6.1754 M12.8789,6.1754 C12.8789,7.0424 12.7289,7.8354 12.4299,8.5534 C12.1299,9.2714 11.7149,9.8854 11.1829,10.3964 C10.6499,10.9074 10.0179,11.3024 9.2849,11.5824 C8.5519,11.8614 7.7559,12.0004 6.8989,12.0004 C6.0419,12.0004 5.2489,11.8614 4.5219,11.5824 C3.7929,11.3024 3.1629,10.9074 2.6319,10.3964 C2.0999,9.8854 1.6839,9.2714 1.3839,8.5534 C1.0849,7.8354 0.9349,7.0424 0.9349,6.1754 C0.9349,5.2974 1.0849,4.5054 1.3839,3.7974 C1.6839,3.0904 2.0999,2.4884 2.6319,1.9924 C3.1629,1.4974 3.7929,1.1144 4.5219,0.8464 C5.2489,0.5784 6.0419,0.4434 6.8989,0.4434 C7.7559,0.4434 8.5519,0.5784 9.2849,0.8464 C10.0179,1.1144 10.6499,1.4974 11.1829,1.9924 C11.7149,2.4884 12.1299,3.0904 12.4299,3.7974 C12.7289,4.5054 12.8789,5.2974 12.8789,6.1754" id="Fill-22" fill="#00A5E2" mask="url(#mask-2)"></path>
                </g>
                <path d="M72.0155,34.1305 C72.0155,33.8725 71.9635,33.6605 71.8605,33.4955 C71.7575,33.3305 71.6185,33.2005 71.4425,33.1085 C71.2665,33.0155 71.0685,32.9535 70.8455,32.9225 C70.6225,32.8915 70.3935,32.8755 70.1565,32.8755 L68.9945,32.8755 L68.9945,35.4625 L70.1105,35.4625 C70.3585,35.4625 70.5955,35.4425 70.8235,35.4015 C71.0495,35.3595 71.2535,35.2875 71.4345,35.1835 C71.6155,35.0805 71.7575,34.9435 71.8605,34.7735 C71.9635,34.6035 72.0155,34.3885 72.0155,34.1305 M74.6645,34.1145 C74.6645,34.7555 74.5455,35.2955 74.3085,35.7345 C74.0705,36.1725 73.7505,36.5265 73.3475,36.7955 C72.9455,37.0635 72.4805,37.2595 71.9535,37.3835 C71.4265,37.5075 70.8785,37.5695 70.3115,37.5695 L68.9945,37.5695 L68.9945,41.7055 L66.3455,41.7055 L66.3455,30.7375 L70.3725,30.7375 C70.9725,30.7375 71.5325,30.7975 72.0545,30.9165 C72.5755,31.0345 73.0305,31.2255 73.4165,31.4885 C73.8045,31.7525 74.1095,32.0985 74.3305,32.5265 C74.5535,32.9555 74.6645,33.4855 74.6645,34.1145" id="Fill-25" fill="#00A5E2"></path>
                <polygon id="Fill-27" fill="#00A5E2" points="76.0331 41.7057 76.0331 30.7377 83.4071 30.7377 83.4071 32.9687 78.5891 32.9687 78.5891 35.0437 83.1431 35.0437 83.1431 37.1667 78.5891 37.1667 78.5891 39.4437 83.6851 39.4437 83.6851 41.7057"></polygon>
                <polygon id="Fill-29" fill="#FBB900" points="8.4237 17.403 5.3037 27.01 13.4727 21.072"></polygon>
                <polygon id="Fill-31" fill="#00A5E2" points="28.1054 10.4342 18.0964 10.4342 20.0054 16.3092"></polygon>
                <polygon id="Fill-33" fill="#00A5E2" points="20.3017 16.9235 28.3967 22.8065 25.3117 13.2815"></polygon>
                <polygon id="Fill-35" fill="#00A5E2" points="10.6874 10.4342 8.6464 16.7182 14.0554 20.6492 19.4254 16.7462 19.4214 16.7332 19.4234 16.7322 17.3764 10.4342 17.3444 10.4342 17.3414 10.4262 10.7104 10.4262 10.7084 10.4342"></polygon>
                <polygon id="Fill-37" fill="#00A5E2" points="21.3271 0.2184 18.2171 9.7414 24.4031 9.7414"></polygon>
                <polyline id="Fill-39" fill="#00A5E2" points="8.0722 16.2692 9.9682 10.4342 0.0002 10.4342 2.1932 12.0282"></polyline>
            </g>
        </g>
    </g>
</svg>