<?xml version="1.0" encoding="UTF-8"?>
<svg width="120px" height="43px" viewBox="0 0 120 43" version="1.1" xmlns="http://www.w3.org/2000/svg" xmlns:xlink="http://www.w3.org/1999/xlink">
    <!-- Generator: Sketch 42 (36781) - http://www.bohemiancoding.com/sketch -->
    <title>logo_01</title>
    <desc>Created with Sketch.</desc>
    <defs>
        <polygon id="path-1" points="8.354 11.3127 8.354 0.3447 0.7013 0.3447 0.7013 11.3127 8.354 11.3127"></polygon>
        <polygon id="path-3" points="12.8693 12 0.9253 12 0.9253 0.4434 12.8693 0.4434 12.8693 12"></polygon>
        <polygon id="path-5" points="7.0184 0.369 0.4264 0.369 0.4264 10.5178 7.0184 10.5178 7.0184 0.369"></polygon>
        <polygon id="path-7" points="1.35525272e-20 0.6742 1.35525272e-20 6.8932 10.6237 6.8932 10.6237 0.6742 0 0.6742"></polygon>
    </defs>
    <g id="Landing-Page" stroke="none" stroke-width="1" fill="none" fill-rule="evenodd">
        <g id="Page-1" transform="translate(0.000000, -1.000000)">
            <path d="M37.8283,22.9039 L36.4333,26.6679 L39.1913,26.6679 L37.8283,22.9039 Z M40.7713,30.9439 L39.9193,28.7909 L35.6753,28.7909 L34.8693,30.9439 L31.9883,30.9439 L36.5893,19.9759 L39.1603,19.9759 L43.7153,30.9439 L40.7713,30.9439 Z" id="Fill-1" fill="#00A5E2"></path>
            <g id="Group-44" transform="translate(0.000000, 0.631300)">
                <path d="M51.714,24.7975 C51.714,24.1775 51.613,23.6645 51.411,23.2565 C51.21,22.8485 50.942,22.5235 50.606,22.2795 C50.27,22.0375 49.888,21.8645 49.46,21.7615 C49.03,21.6585 48.589,21.6065 48.135,21.6065 L46.818,21.6065 L46.818,28.0195 L48.073,28.0195 C48.548,28.0195 49.005,27.9655 49.443,27.8575 C49.883,27.7485 50.27,27.5705 50.606,27.3225 C50.942,27.0745 51.21,26.7445 51.411,26.3315 C51.613,25.9185 51.714,25.4075 51.714,24.7975 M54.471,24.7975 C54.471,25.7575 54.293,26.5865 53.937,27.2845 C53.58,27.9815 53.11,28.5545 52.527,29.0035 C51.943,29.4525 51.285,29.7835 50.552,29.9955 C49.818,30.2075 49.074,30.3125 48.321,30.3125 L44.232,30.3125 L44.232,19.3445 L48.197,19.3445 C48.972,19.3445 49.735,19.4355 50.49,19.6155 C51.243,19.7965 51.915,20.0955 52.504,20.5145 C53.092,20.9325 53.568,21.4925 53.929,22.1945 C54.29,22.8975 54.471,23.7645 54.471,24.7975" id="Fill-2" fill="#00A5E2"></path>
                <polygon id="Fill-4" fill="#00A5E2" points="61.2716 30.3127 58.6226 30.3127 54.4706 19.3447 57.4456 19.3447 59.9856 27.1217 60.0466 27.1217 62.5736 19.3447 65.5006 19.3447"></polygon>
                <path d="M74.6095,24.7824 C74.6095,24.3074 74.5325,23.8634 74.3775,23.4494 C74.2225,23.0364 74.0075,22.6824 73.7345,22.3884 C73.4615,22.0944 73.1305,21.8624 72.7435,21.6914 C72.3555,21.5214 71.9295,21.4364 71.4645,21.4364 C71.0005,21.4364 70.5765,21.5214 70.1945,21.6914 C69.8125,21.8624 69.4825,22.0944 69.2035,22.3884 C68.9245,22.6824 68.7105,23.0364 68.5595,23.4494 C68.4105,23.8634 68.3355,24.3074 68.3355,24.7824 C68.3355,25.2784 68.4135,25.7354 68.5675,26.1534 C68.7225,26.5714 68.9365,26.9304 69.2115,27.2294 C69.4845,27.5294 69.8125,27.7644 70.1945,27.9344 C70.5765,28.1054 71.0005,28.1904 71.4645,28.1904 C71.9295,28.1904 72.3525,28.1054 72.7355,27.9344 C73.1175,27.7644 73.4485,27.5294 73.7265,27.2294 C74.0055,26.9304 74.2225,26.5714 74.3775,26.1534 C74.5325,25.7354 74.6095,25.2784 74.6095,24.7824 M77.4455,24.7824 C77.4455,25.6494 77.2945,26.4424 76.9955,27.1604 C76.6955,27.8784 76.2805,28.4924 75.7485,29.0034 C75.2165,29.5144 74.5835,29.9094 73.8505,30.1894 C73.1175,30.4674 72.3215,30.6064 71.4645,30.6064 C70.6075,30.6064 69.8145,30.4674 69.0875,30.1894 C68.3585,29.9094 67.7285,29.5144 67.1975,29.0034 C66.6655,28.4924 66.2495,27.8784 65.9495,27.1604 C65.6505,26.4424 65.5005,25.6494 65.5005,24.7824 C65.5005,23.9044 65.6505,23.1124 65.9495,22.4044 C66.2495,21.6974 66.6655,21.0954 67.1975,20.5994 C67.7285,20.1034 68.3585,19.7214 69.0875,19.4524 C69.8145,19.1844 70.6075,19.0504 71.4645,19.0504 C72.3215,19.0504 73.1175,19.1844 73.8505,19.4524 C74.5835,19.7214 75.2165,20.1034 75.7485,20.5994 C76.2805,21.0954 76.6955,21.6974 76.9955,22.4044 C77.2945,23.1124 77.4455,23.9044 77.4455,24.7824" id="Fill-6" fill="#00A5E2"></path>
                <path d="M86.8175,30.1188 C86.1045,30.4438 85.2845,30.6068 84.3545,30.6068 C83.5065,30.6068 82.7245,30.4678 82.0065,30.1888 C81.2895,29.9098 80.6685,29.5148 80.1405,29.0038 C79.6145,28.4928 79.2015,27.8808 78.9015,27.1678 C78.6015,26.4548 78.4525,25.6708 78.4525,24.8128 C78.4525,23.9358 78.6045,23.1398 78.9095,22.4278 C79.2135,21.7148 79.6345,21.1088 80.1715,20.6068 C80.7085,20.1068 81.3385,19.7218 82.0615,19.4528 C82.7845,19.1848 83.5635,19.0498 84.4005,19.0498 C85.1745,19.0498 85.9365,19.1878 86.6855,19.4608 C87.4345,19.7348 88.0415,20.1348 88.5055,20.6608 L86.7095,22.4588 C86.4615,22.1178 86.1355,21.8648 85.7335,21.6998 C85.3305,21.5348 84.9175,21.4518 84.4935,21.4518 C84.0295,21.4518 83.6035,21.5368 83.2155,21.7068 C82.8295,21.8778 82.4955,22.1128 82.2165,22.4118 C81.9375,22.7118 81.7205,23.0648 81.5655,23.4728 C81.4115,23.8808 81.3335,24.3278 81.3335,24.8128 C81.3335,25.3088 81.4115,25.7638 81.5655,26.1768 C81.7205,26.5898 81.9345,26.9428 82.2085,27.2378 C82.4825,27.5318 82.8105,27.7618 83.1925,27.9268 C83.5745,28.0928 83.9935,28.1748 84.4475,28.1748 C84.9735,28.1748 85.4325,28.0718 85.8255,27.8658 C86.2175,27.6588 86.5335,27.3898 86.7715,27.0598 L88.6145,28.7948 C88.1295,29.3518 87.5305,29.7938 86.8175,30.1188" id="Fill-8" fill="#00A5E2"></path>
                <path d="M94.4542,22.2726 L93.0592,26.0366 L95.8182,26.0366 L94.4542,22.2726 Z M97.3982,30.3126 L96.5462,28.1596 L92.3022,28.1596 L91.4962,30.3126 L88.6142,30.3126 L93.2152,19.3446 L95.7872,19.3446 L100.3422,30.3126 L97.3982,30.3126 Z" id="Fill-10" fill="#00A5E2"></path>
                <polygon id="Fill-12" fill="#00A5E2" points="104.3947 21.6066 104.3947 30.3126 101.7457 30.3126 101.7457 21.6066 98.6477 21.6066 98.6477 19.3446 107.4927 19.3446 107.4927 21.6066"></polygon>
                <g id="Group-16" transform="translate(108.000000, 19.000000)">
                    <mask id="mask-2" fill="white">
                        <use xlink:href="#path-1"></use>
                    </mask>
                    <g id="Clip-15"></g>
                    <polygon id="Fill-14" fill="#00A5E2" mask="url(#mask-2)" points="0.7013 11.3127 0.7013 0.3447 8.0753 0.3447 8.0753 2.5757 3.2583 2.5757 3.2583 4.6507 7.8113 4.6507 7.8113 6.7737 3.2583 6.7737 3.2583 9.0507 8.3543 9.0507 8.3543 11.3127"></polygon>
                </g>
                <polygon id="Fill-17" fill="#00A5E2" points="23.0333 42.7057 23.0333 31.7377 30.4073 31.7377 30.4073 33.9687 25.5903 33.9687 25.5903 36.0437 30.1443 36.0437 30.1443 38.1667 25.5903 38.1667 25.5903 40.4437 30.6863 40.4437 30.6863 42.7057"></polygon>
                <path d="M40.7169,40.3747 C40.4949,40.9167 40.1769,41.3817 39.7649,41.7687 C39.3519,42.1557 38.8529,42.4577 38.2699,42.6747 C37.6859,42.8917 37.0379,42.9997 36.3249,42.9997 C35.6029,42.9997 34.9509,42.8917 34.3729,42.6747 C33.7949,42.4577 33.3049,42.1557 32.9019,41.7687 C32.4989,41.3817 32.1899,40.9167 31.9729,40.3747 C31.7549,39.8327 31.6469,39.2307 31.6469,38.5697 L31.6469,31.7377 L34.2799,31.7377 L34.2799,38.3527 C34.2799,38.6527 34.3199,38.9367 34.3969,39.2047 C34.4749,39.4737 34.5929,39.7137 34.7529,39.9247 C34.9129,40.1367 35.1249,40.3047 35.3879,40.4287 C35.6519,40.5527 35.9689,40.6147 36.3409,40.6147 C36.7119,40.6147 37.0299,40.5527 37.2929,40.4287 C37.5569,40.3047 37.7719,40.1367 37.9369,39.9247 C38.1019,39.7137 38.2209,39.4737 38.2929,39.2047 C38.3649,38.9367 38.4019,38.6527 38.4019,38.3527 L38.4019,31.7377 L41.0499,31.7377 L41.0499,38.5697 C41.0499,39.2307 40.9389,39.8327 40.7169,40.3747" id="Fill-19" fill="#00A5E2"></path>
                <path d="M48.2697,35.0998 C48.2697,34.8418 48.2147,34.6328 48.1067,34.4728 C47.9977,34.3118 47.8567,34.1878 47.6857,34.0998 C47.5137,34.0128 47.3227,33.9538 47.1097,33.9218 C46.8967,33.8918 46.6927,33.8758 46.4957,33.8758 L45.0787,33.8758 L45.0787,36.4318 L46.3387,36.4318 C46.5567,36.4318 46.7807,36.4138 47.0087,36.3778 C47.2377,36.3418 47.4447,36.2768 47.6317,36.1838 C47.8187,36.0908 47.9707,35.9568 48.0907,35.7808 C48.2097,35.6058 48.2697,35.3778 48.2697,35.0998 L48.2697,35.0998 Z M48.3777,42.7058 L45.9977,38.3528 L45.0937,38.3528 L45.0937,42.7058 L42.5067,42.7058 L42.5067,31.7378 L46.6897,31.7378 C47.2157,31.7378 47.7297,31.7918 48.2307,31.9008 C48.7317,32.0088 49.1807,32.1918 49.5787,32.4508 C49.9757,32.7088 50.2937,33.0498 50.5317,33.4728 C50.7687,33.8968 50.8877,34.4238 50.8877,35.0528 C50.8877,35.7968 50.6867,36.4218 50.2837,36.9278 C49.8807,37.4328 49.3227,37.7948 48.6107,38.0118 L51.4767,42.7058 L48.3777,42.7058 Z" id="Fill-21" fill="#00A5E2"></path>
                <g id="Group-25" transform="translate(51.000000, 31.000000)">
                    <mask id="mask-4" fill="white">
                        <use xlink:href="#path-3"></use>
                    </mask>
                    <g id="Clip-24"></g>
                    <path d="M10.0343,6.1754 C10.0343,5.7004 9.9573,5.2564 9.8023,4.8424 C9.6473,4.4304 9.4323,4.0764 9.1593,3.7814 C8.8863,3.4874 8.5553,3.2554 8.1683,3.0844 C7.7803,2.9144 7.3543,2.8294 6.8893,2.8294 C6.4253,2.8294 6.0013,2.9144 5.6193,3.0844 C5.2373,3.2554 4.9063,3.4874 4.6283,3.7814 C4.3493,4.0764 4.1353,4.4304 3.9853,4.8424 C3.8353,5.2564 3.7613,5.7004 3.7613,6.1754 C3.7613,6.6714 3.8383,7.1284 3.9923,7.5464 C4.1473,7.9644 4.3613,8.3234 4.6363,8.6234 C4.9093,8.9234 5.2373,9.1574 5.6193,9.3274 C6.0013,9.4984 6.4253,9.5834 6.8893,9.5834 C7.3543,9.5834 7.7773,9.4984 8.1603,9.3274 C8.5423,9.1574 8.8733,8.9234 9.1513,8.6234 C9.4303,8.3234 9.6473,7.9644 9.8023,7.5464 C9.9573,7.1284 10.0343,6.6714 10.0343,6.1754 M12.8693,6.1754 C12.8693,7.0424 12.7203,7.8354 12.4203,8.5534 C12.1203,9.2714 11.7053,9.8854 11.1733,10.3964 C10.6403,10.9074 10.0093,11.3024 9.2753,11.5824 C8.5423,11.8614 7.7473,12.0004 6.8893,12.0004 C6.0323,12.0004 5.2403,11.8614 4.5123,11.5824 C3.7843,11.3024 3.1533,10.9074 2.6223,10.3964 C2.0903,9.8854 1.6743,9.2714 1.3753,8.5534 C1.0753,7.8354 0.9253,7.0424 0.9253,6.1754 C0.9253,5.2974 1.0753,4.5054 1.3753,3.7974 C1.6743,3.0904 2.0903,2.4884 2.6223,1.9924 C3.1533,1.4974 3.7843,1.1144 4.5123,0.8464 C5.2403,0.5784 6.0323,0.4434 6.8893,0.4434 C7.7473,0.4434 8.5423,0.5784 9.2753,0.8464 C10.0093,1.1144 10.6403,1.4974 11.1733,1.9924 C11.7053,2.4884 12.1203,3.0904 12.4203,3.7974 C12.7203,4.5054 12.8693,5.2974 12.8693,6.1754" id="Fill-23" fill="#00A5E2" mask="url(#mask-4)"></path>
                </g>
                <path d="M71.006,35.1305 C71.006,34.8725 70.954,34.6605 70.851,34.4955 C70.748,34.3305 70.609,34.2005 70.433,34.1085 C70.257,34.0155 70.059,33.9535 69.836,33.9225 C69.614,33.8915 69.385,33.8755 69.147,33.8755 L67.985,33.8755 L67.985,36.4625 L69.101,36.4625 C69.349,36.4625 69.586,36.4425 69.814,36.4015 C70.04,36.3595 70.244,36.2875 70.425,36.1835 C70.606,36.0805 70.748,35.9435 70.851,35.7735 C70.954,35.6035 71.006,35.3885 71.006,35.1305 M73.655,35.1145 C73.655,35.7555 73.536,36.2955 73.299,36.7345 C73.061,37.1725 72.741,37.5265 72.338,37.7955 C71.936,38.0635 71.471,38.2595 70.944,38.3835 C70.417,38.5075 69.869,38.5695 69.302,38.5695 L67.985,38.5695 L67.985,42.7055 L65.336,42.7055 L65.336,31.7375 L69.364,31.7375 C69.963,31.7375 70.524,31.7975 71.045,31.9165 C71.566,32.0345 72.021,32.2255 72.407,32.4885 C72.795,32.7525 73.1,33.0985 73.322,33.5265 C73.544,33.9555 73.655,34.4855 73.655,35.1145" id="Fill-26" fill="#00A5E2"></path>
                <polygon id="Fill-28" fill="#00A5E2" points="75.0236 42.7057 75.0236 31.7377 82.3976 31.7377 82.3976 33.9687 77.5796 33.9687 77.5796 36.0437 82.1336 36.0437 82.1336 38.1667 77.5796 38.1667 77.5796 40.4437 82.6756 40.4437 82.6756 42.7057"></polygon>
                <polygon id="Fill-30" fill="#00A5E2" points="17.3019 20.8556 13.9779 31.0946 22.6829 24.7666"></polygon>
                <polygon id="Fill-32" fill="#00A5E2" points="28.7257 11.256 18.0597 11.256 20.0937 17.518"></polygon>
                <polygon id="Fill-34" fill="#00A5E2" points="17.6339 20.2287 26.2609 26.4987 22.9739 16.3477"></polygon>
                <polygon id="Fill-36" fill="#00A5E2" points="10.1632 11.256 7.9872 17.953 13.7522 22.144 19.4762 17.983 19.4722 17.969 19.4742 17.968 17.2932 11.256 17.2582 11.256 17.2552 11.248 10.1872 11.248 10.1842 11.256"></polygon>
                <g id="Group-40" transform="translate(10.000000, 0.000000)">
                    <mask id="mask-6" fill="white">
                        <use xlink:href="#path-5"></use>
                    </mask>
                    <g id="Clip-39"></g>
                    <polygon id="Fill-38" fill="#00A5E2" mask="url(#mask-6)" points="3.7404 0.3688 0.4264 10.5178 7.0184 10.5178"></polygon>
                </g>
                <g id="Group-43" transform="translate(0.000000, 7.000000)">
                    <mask id="mask-8" fill="white">
                        <use xlink:href="#path-7"></use>
                    </mask>
                    <g id="Clip-42"></g>
                    <polygon id="Fill-41" fill="#FBB900" mask="url(#mask-8)" points="8.6027 6.8932 10.6237 0.6742 -0.0003 0.6742 2.3377 2.3732"></polygon>
                </g>
            </g>
        </g>
    </g>
</svg>