<?xml version="1.0" encoding="UTF-8"?>
<svg width="120px" height="43px" viewBox="0 0 120 43" version="1.1" xmlns="http://www.w3.org/2000/svg" xmlns:xlink="http://www.w3.org/1999/xlink">
    <!-- Generator: Sketch 42 (36781) - http://www.bohemiancoding.com/sketch -->
    <title>logo_05</title>
    <desc>Created with Sketch.</desc>
    <defs>
        <polygon id="path-1" points="0 0.9862 0 6.7542 9.8524 6.7542 9.8524 0.9862 5.42101086e-20 0.9862"></polygon>
    </defs>
    <g id="Landing-Page" stroke="none" stroke-width="1" fill="none" fill-rule="evenodd">
        <g id="Page-1">
            <path d="M40.7187,21.9677 L39.3247,25.7317 L42.0827,25.7317 L40.7187,21.9677 Z M43.6627,30.0077 L42.8107,27.8547 L38.5667,27.8547 L37.7607,30.0077 L34.8787,30.0077 L39.4797,19.0397 L42.0517,19.0397 L46.6067,30.0077 L43.6627,30.0077 Z" id="Fill-1" fill="#00A5E2"></path>
            <g id="Group-41" transform="translate(0.000000, 0.694900)">
                <path d="M54.6044,23.7977 C54.6044,23.1777 54.5034,22.6647 54.3024,22.2557 C54.1004,21.8487 53.8334,21.5227 53.4974,21.2797 C53.1614,21.0377 52.7794,20.8647 52.3504,20.7607 C51.9214,20.6587 51.4804,20.6067 51.0264,20.6067 L49.7084,20.6067 L49.7084,27.0197 L50.9634,27.0197 C51.4394,27.0197 51.8964,26.9657 52.3344,26.8577 C52.7734,26.7487 53.1614,26.5707 53.4974,26.3227 C53.8334,26.0747 54.1004,25.7447 54.3024,25.3317 C54.5034,24.9187 54.6044,24.4067 54.6044,23.7977 M57.3624,23.7977 C57.3624,24.7577 57.1844,25.5867 56.8284,26.2837 C56.4704,26.9817 56.0004,27.5537 55.4174,28.0037 C54.8334,28.4527 54.1754,28.7837 53.4434,28.9957 C52.7084,29.2067 51.9654,29.3127 51.2114,29.3127 L47.1224,29.3127 L47.1224,18.3447 L51.0874,18.3447 C51.8634,18.3447 52.6264,18.4357 53.3804,18.6157 C54.1344,18.7967 54.8054,19.0957 55.3944,19.5147 C55.9834,19.9327 56.4584,20.4927 56.8194,21.1947 C57.1814,21.8977 57.3624,22.7647 57.3624,23.7977" id="Fill-2" fill="#00A5E2"></path>
                <polygon id="Fill-4" fill="#00A5E2" points="64.162 29.3123 61.514 29.3123 57.362 18.3453 60.336 18.3453 62.876 26.1213 62.938 26.1213 65.464 18.3453 68.391 18.3453"></polygon>
                <path d="M77.5009,23.7825 C77.5009,23.3075 77.4229,22.8635 77.2679,22.4495 C77.1129,22.0365 76.8979,21.6825 76.6259,21.3885 C76.3519,21.0945 76.0219,20.8625 75.6339,20.6915 C75.2469,20.5205 74.8209,20.4355 74.3549,20.4355 C73.8919,20.4355 73.4679,20.5205 73.0859,20.6915 C72.7039,20.8625 72.3729,21.0945 72.0939,21.3885 C71.8149,21.6825 71.6009,22.0365 71.4509,22.4495 C71.3019,22.8635 71.2269,23.3075 71.2269,23.7825 C71.2269,24.2775 71.3049,24.7355 71.4589,25.1535 C71.6129,25.5715 71.8279,25.9305 72.1019,26.2295 C72.3749,26.5295 72.7039,26.7635 73.0859,26.9345 C73.4679,27.1045 73.8919,27.1905 74.3549,27.1905 C74.8209,27.1905 75.2439,27.1045 75.6269,26.9345 C76.0089,26.7635 76.3389,26.5295 76.6169,26.2295 C76.8969,25.9305 77.1129,25.5715 77.2679,25.1535 C77.4229,24.7355 77.5009,24.2775 77.5009,23.7825 M80.3359,23.7825 C80.3359,24.6495 80.1859,25.4425 79.8869,26.1595 C79.5859,26.8785 79.1709,27.4915 78.6399,28.0035 C78.1069,28.5145 77.4749,28.9095 76.7409,29.1885 C76.0089,29.4675 75.2129,29.6065 74.3549,29.6065 C73.4989,29.6065 72.7059,29.4675 71.9789,29.1885 C71.2499,28.9095 70.6199,28.5145 70.0879,28.0035 C69.5569,27.4915 69.1409,26.8785 68.8409,26.1595 C68.5409,25.4425 68.3919,24.6495 68.3919,23.7825 C68.3919,22.9045 68.5409,22.1115 68.8409,21.4045 C69.1409,20.6975 69.5569,20.0945 70.0879,19.5995 C70.6199,19.1035 71.2499,18.7215 71.9789,18.4525 C72.7059,18.1845 73.4989,18.0505 74.3549,18.0505 C75.2129,18.0505 76.0089,18.1845 76.7409,18.4525 C77.4749,18.7215 78.1069,19.1035 78.6399,19.5995 C79.1709,20.0945 79.5859,20.6975 79.8869,21.4045 C80.1859,22.1115 80.3359,22.9045 80.3359,23.7825" id="Fill-6" fill="#00A5E2"></path>
                <path d="M89.7079,29.119 C88.9959,29.444 88.1749,29.607 87.2449,29.607 C86.3979,29.607 85.6159,29.468 84.8979,29.189 C84.1809,28.91 83.5589,28.515 83.0309,28.004 C82.5049,27.492 82.0919,26.881 81.7919,26.168 C81.4929,25.455 81.3429,24.67 81.3429,23.813 C81.3429,22.935 81.4949,22.14 81.7999,21.428 C82.1039,20.715 82.5249,20.108 83.0619,19.607 C83.5999,19.107 84.2289,18.722 84.9529,18.453 C85.6749,18.185 86.4549,18.05 87.2919,18.05 C88.0659,18.05 88.8279,18.187 89.5769,18.461 C90.3249,18.735 90.9329,19.135 91.3959,19.661 L89.6009,21.459 C89.3529,21.118 89.0259,20.865 88.6239,20.699 C88.2219,20.535 87.8089,20.452 87.3849,20.452 C86.9199,20.452 86.4939,20.536 86.1069,20.707 C85.7199,20.878 85.3859,21.113 85.1069,21.412 C84.8289,21.712 84.6109,22.065 84.4569,22.473 C84.3029,22.881 84.2249,23.328 84.2249,23.813 C84.2249,24.309 84.3029,24.764 84.4569,25.177 C84.6109,25.59 84.8259,25.943 85.0999,26.238 C85.3729,26.532 85.7009,26.762 86.0839,26.927 C86.4659,27.093 86.8839,27.175 87.3389,27.175 C87.8649,27.175 88.3239,27.072 88.7169,26.865 C89.1089,26.659 89.4239,26.39 89.6619,26.059 L91.5059,27.794 C91.0199,28.352 90.4209,28.794 89.7079,29.119" id="Fill-8" fill="#00A5E2"></path>
                <path d="M97.3456,21.2728 L95.9506,25.0368 L98.7086,25.0368 L97.3456,21.2728 Z M100.2886,29.3128 L99.4366,27.1598 L95.1926,27.1598 L94.3866,29.3128 L91.5056,29.3128 L96.1066,18.3448 L98.6776,18.3448 L103.2326,29.3128 L100.2886,29.3128 Z" id="Fill-10" fill="#00A5E2"></path>
                <polygon id="Fill-12" fill="#00A5E2" points="107.2851 20.6068 107.2851 29.3128 104.6371 29.3128 104.6371 20.6068 101.5381 20.6068 101.5381 18.3448 110.3841 18.3448 110.3841 20.6068"></polygon>
                <polygon id="Fill-14" fill="#00A5E2" points="111.5927 29.3123 111.5927 18.3453 118.9657 18.3453 118.9657 20.5753 114.1487 20.5753 114.1487 22.6513 118.7027 22.6513 118.7027 24.7733 114.1487 24.7733 114.1487 27.0513 119.2447 27.0513 119.2447 29.3123"></polygon>
                <polygon id="Fill-16" fill="#00A5E2" points="25.9247 41.7059 25.9247 30.7379 33.2987 30.7379 33.2987 32.9689 28.4807 32.9689 28.4807 35.0439 33.0347 35.0439 33.0347 37.1669 28.4807 37.1669 28.4807 39.4439 33.5767 39.4439 33.5767 41.7059"></polygon>
                <path d="M43.6083,39.3743 C43.3853,39.9163 43.0683,40.3813 42.6553,40.7683 C42.2423,41.1563 41.7443,41.4573 41.1603,41.6743 C40.5773,41.8923 39.9283,41.9993 39.2153,41.9993 C38.4933,41.9993 37.8423,41.8923 37.2643,41.6743 C36.6853,41.4573 36.1953,41.1563 35.7933,40.7683 C35.3893,40.3813 35.0803,39.9163 34.8633,39.3743 C34.6463,38.8323 34.5383,38.2303 34.5383,37.5693 L34.5383,30.7383 L37.1713,30.7383 L37.1713,37.3523 C37.1713,37.6523 37.2103,37.9363 37.2883,38.2053 C37.3653,38.4733 37.4833,38.7133 37.6433,38.9253 C37.8033,39.1373 38.0153,39.3043 38.2793,39.4283 C38.5433,39.5523 38.8603,39.6143 39.2313,39.6143 C39.6033,39.6143 39.9203,39.5523 40.1843,39.4283 C40.4483,39.3043 40.6623,39.1373 40.8273,38.9253 C40.9923,38.7133 41.1113,38.4733 41.1833,38.2053 C41.2553,37.9363 41.2923,37.6523 41.2923,37.3523 L41.2923,30.7383 L43.9413,30.7383 L43.9413,37.5693 C43.9413,38.2303 43.8303,38.8323 43.6083,39.3743" id="Fill-18" fill="#00A5E2"></path>
                <path d="M51.1601,34.0994 C51.1601,33.8414 51.1061,33.6324 50.9971,33.4724 C50.8891,33.3124 50.7481,33.1884 50.5771,33.1004 C50.4051,33.0124 50.2141,32.9534 50.0011,32.9224 C49.7881,32.8914 49.5831,32.8754 49.3861,32.8754 L47.9691,32.8754 L47.9691,35.4314 L49.2301,35.4314 C49.4481,35.4314 49.6711,35.4134 49.8991,35.3774 C50.1281,35.3414 50.3351,35.2774 50.5221,35.1834 C50.7091,35.0904 50.8621,34.9564 50.9811,34.7814 C51.1001,34.6054 51.1601,34.3784 51.1601,34.0994 L51.1601,34.0994 Z M51.2691,41.7054 L48.8881,37.3524 L47.9841,37.3524 L47.9841,41.7054 L45.3971,41.7054 L45.3971,30.7384 L49.5801,30.7384 C50.1071,30.7384 50.6211,30.7924 51.1221,30.9004 C51.6231,31.0084 52.0721,31.1924 52.4701,31.4504 C52.8671,31.7084 53.1841,32.0494 53.4221,32.4734 C53.6601,32.8964 53.7781,33.4234 53.7781,34.0534 C53.7781,34.7964 53.5771,35.4214 53.1751,35.9274 C52.7711,36.4334 52.2141,36.7954 51.5011,37.0114 L54.3671,41.7054 L51.2691,41.7054 Z" id="Fill-20" fill="#00A5E2"></path>
                <path d="M63.9257,36.1756 C63.9257,35.7006 63.8477,35.2566 63.6937,34.8426 C63.5377,34.4296 63.3237,34.0756 63.0507,33.7816 C62.7767,33.4876 62.4467,33.2556 62.0587,33.0846 C61.6717,32.9146 61.2447,32.8286 60.7797,32.8286 C60.3167,32.8286 59.8927,32.9146 59.5107,33.0846 C59.1277,33.2556 58.7977,33.4876 58.5197,33.7816 C58.2397,34.0756 58.0257,34.4296 57.8757,34.8426 C57.7267,35.2566 57.6517,35.7006 57.6517,36.1756 C57.6517,36.6716 57.7287,37.1286 57.8837,37.5466 C58.0387,37.9646 58.2527,38.3236 58.5267,38.6226 C58.8007,38.9226 59.1277,39.1576 59.5107,39.3276 C59.8927,39.4986 60.3167,39.5836 60.7797,39.5836 C61.2447,39.5836 61.6687,39.4986 62.0507,39.3276 C62.4337,39.1576 62.7637,38.9226 63.0417,38.6226 C63.3217,38.3236 63.5377,37.9646 63.6937,37.5466 C63.8477,37.1286 63.9257,36.6716 63.9257,36.1756 M66.7607,36.1756 C66.7607,37.0426 66.6107,37.8356 66.3117,38.5536 C66.0117,39.2716 65.5957,39.8856 65.0647,40.3966 C64.5317,40.9076 63.8997,41.3026 63.1657,41.5816 C62.4337,41.8606 61.6377,41.9996 60.7797,41.9996 C59.9237,41.9996 59.1307,41.8606 58.4037,41.5816 C57.6747,41.3026 57.0447,40.9076 56.5127,40.3966 C55.9807,39.8856 55.5657,39.2716 55.2657,38.5536 C54.9657,37.8356 54.8167,37.0426 54.8167,36.1756 C54.8167,35.2976 54.9657,34.5056 55.2657,33.7976 C55.5657,33.0906 55.9807,32.4886 56.5127,31.9926 C57.0447,31.4966 57.6747,31.1146 58.4037,30.8456 C59.1307,30.5776 59.9237,30.4436 60.7797,30.4436 C61.6377,30.4436 62.4337,30.5776 63.1657,30.8456 C63.8997,31.1146 64.5317,31.4966 65.0647,31.9926 C65.5957,32.4886 66.0117,33.0906 66.3117,33.7976 C66.6107,34.5056 66.7607,35.2976 66.7607,36.1756" id="Fill-22" fill="#00A5E2"></path>
                <path d="M73.8964,34.1307 C73.8964,33.8727 73.8444,33.6607 73.7424,33.4947 C73.6384,33.3307 73.4994,33.2007 73.3244,33.1077 C73.1474,33.0157 72.9494,32.9537 72.7274,32.9227 C72.5044,32.8907 72.2754,32.8757 72.0384,32.8757 L70.8754,32.8757 L70.8754,35.4627 L71.9914,35.4627 C72.2394,35.4627 72.4764,35.4427 72.7044,35.4017 C72.9314,35.3597 73.1344,35.2867 73.3154,35.1837 C73.4974,35.0807 73.6384,34.9437 73.7424,34.7737 C73.8444,34.6027 73.8964,34.3887 73.8964,34.1307 M76.5454,34.1147 C76.5454,34.7557 76.4264,35.2957 76.1894,35.7337 C75.9524,36.1727 75.6314,36.5267 75.2294,36.7957 C74.8264,37.0637 74.3614,37.2597 73.8344,37.3837 C73.3084,37.5077 72.7604,37.5697 72.1934,37.5697 L70.8754,37.5697 L70.8754,41.7057 L68.2264,41.7057 L68.2264,30.7377 L72.2544,30.7377 C72.8534,30.7377 73.4144,30.7977 73.9354,30.9167 C74.4574,31.0347 74.9114,31.2257 75.2984,31.4887 C75.6864,31.7527 75.9904,32.0987 76.2124,32.5267 C76.4344,32.9557 76.5454,33.4847 76.5454,34.1147" id="Fill-24" fill="#00A5E2"></path>
                <polygon id="Fill-26" fill="#00A5E2" points="77.914 41.7059 77.914 30.7379 85.288 30.7379 85.288 32.9689 80.471 32.9689 80.471 35.0439 85.025 35.0439 85.025 37.1669 80.471 37.1669 80.471 39.4439 85.567 39.4439 85.567 41.7059"></polygon>
                <polygon id="Fill-28" fill="#00A5E2" points="9.8026 17.2908 6.7196 26.7878 14.7926 20.9178"></polygon>
                <polygon id="Fill-30" fill="#00A5E2" points="29.2567 10.4026 19.3637 10.4026 21.2517 16.2106"></polygon>
                <polygon id="Fill-32" fill="#FBB900" points="23.4042 15.5198 31.4062 21.3358 28.3572 11.9198"></polygon>
                <polygon id="Fill-34" fill="#00A5E2" points="12.0409 10.4026 10.0219 16.6136 15.3689 20.5006 20.6779 16.6416 20.6739 16.6296 20.6759 16.6276 18.6529 10.4026 18.6199 10.4026 18.6179 10.3946 12.0629 10.3946 12.0609 10.4026"></polygon>
                <polygon id="Fill-36" fill="#00A5E2" points="11.8212 0.305 8.7472 9.718 14.8622 9.718"></polygon>
                <g id="Group-40" transform="translate(0.000000, 14.000000)">
                    <mask id="mask-2" fill="white">
                        <use xlink:href="#path-1"></use>
                    </mask>
                    <g id="Clip-39"></g>
                    <polygon id="Fill-38" fill="#00A5E2" mask="url(#mask-2)" points="7.9784 6.7542 9.8524 0.9862 -0.0006 0.9862"></polygon>
                </g>
            </g>
        </g>
    </g>
</svg>