<?xml version="1.0" encoding="UTF-8"?>
<svg width="120px" height="43px" viewBox="0 0 120 43" version="1.1" xmlns="http://www.w3.org/2000/svg" xmlns:xlink="http://www.w3.org/1999/xlink">
    <!-- Generator: Sketch 42 (36781) - http://www.bohemiancoding.com/sketch -->
    <title>logo_03</title>
    <desc>Created with Sketch.</desc>
    <defs>
        <polygon id="path-1" points="12.0533 12 0.1093 12 0.1093 0.4434 12.0533 0.4434"></polygon>
        <polygon id="path-3" points="6.2696 0.212 0.0286 0.212 0.0286 9.8166 6.2696 9.8166 6.2696 0.212"></polygon>
        <polygon id="path-5" points="0 6.4015 0 0.5155 10.0541 0.5155 10.0541 6.4015 -5.15483923e-16 6.4015"></polygon>
    </defs>
    <g id="Landing-Page" stroke="none" stroke-width="1" fill="none" fill-rule="evenodd">
        <g id="Page-1">
            <path d="M39.0113,22.0608 L37.6173,25.8248 L40.3753,25.8248 L39.0113,22.0608 Z M41.9553,30.1008 L41.1033,27.9478 L36.8593,27.9478 L36.0533,30.1008 L33.1723,30.1008 L37.7733,19.1328 L40.3443,19.1328 L44.8993,30.1008 L41.9553,30.1008 Z" id="Fill-1" fill="#00A5E2"></path>
            <g id="Group-43" transform="translate(0.000000, 0.788200)">
                <path d="M52.898,23.7975 C52.898,23.1775 52.797,22.6645 52.595,22.2565 C52.394,21.8485 52.126,21.5235 51.79,21.2795 C51.454,21.0375 51.072,20.8645 50.643,20.7615 C50.214,20.6585 49.773,20.6065 49.319,20.6065 L48.002,20.6065 L48.002,27.0195 L49.257,27.0195 C49.732,27.0195 50.189,26.9655 50.627,26.8575 C51.066,26.7485 51.454,26.5705 51.79,26.3225 C52.126,26.0745 52.394,25.7445 52.595,25.3315 C52.797,24.9185 52.898,24.4075 52.898,23.7975 M55.655,23.7975 C55.655,24.7575 55.477,25.5865 55.121,26.2845 C54.764,26.9815 54.294,27.5545 53.71,28.0035 C53.127,28.4525 52.469,28.7835 51.736,28.9955 C51.002,29.2075 50.258,29.3125 49.505,29.3125 L45.416,29.3125 L45.416,18.3445 L49.381,18.3445 C50.156,18.3445 50.919,18.4355 51.673,18.6155 C52.427,18.7965 53.099,19.0955 53.687,19.5145 C54.276,19.9325 54.751,20.4925 55.113,21.1945 C55.474,21.8975 55.655,22.7645 55.655,23.7975" id="Fill-2" fill="#00A5E2"></path>
                <polygon id="Fill-4" fill="#00A5E2" points="62.4546 29.3127 59.8066 29.3127 55.6546 18.3447 58.6296 18.3447 61.1696 26.1217 61.2306 26.1217 63.7566 18.3447 66.6836 18.3447"></polygon>
                <path d="M75.7935,23.7824 C75.7935,23.3074 75.7165,22.8634 75.5615,22.4494 C75.4065,22.0364 75.1915,21.6824 74.9185,21.3884 C74.6455,21.0944 74.3145,20.8624 73.9275,20.6914 C73.5395,20.5214 73.1135,20.4364 72.6485,20.4364 C72.1845,20.4364 71.7605,20.5214 71.3785,20.6914 C70.9965,20.8624 70.6655,21.0944 70.3875,21.3884 C70.1085,21.6824 69.8945,22.0364 69.7435,22.4494 C69.5945,22.8634 69.5195,23.3074 69.5195,23.7824 C69.5195,24.2784 69.5975,24.7354 69.7515,25.1534 C69.9065,25.5714 70.1205,25.9304 70.3945,26.2294 C70.6685,26.5294 70.9965,26.7644 71.3785,26.9344 C71.7605,27.1054 72.1845,27.1904 72.6485,27.1904 C73.1135,27.1904 73.5365,27.1054 73.9195,26.9344 C74.3015,26.7644 74.6325,26.5294 74.9105,26.2294 C75.1895,25.9304 75.4065,25.5714 75.5615,25.1534 C75.7165,24.7354 75.7935,24.2784 75.7935,23.7824 M78.6285,23.7824 C78.6285,24.6494 78.4785,25.4424 78.1795,26.1604 C77.8795,26.8784 77.4645,27.4924 76.9325,28.0034 C76.4005,28.5144 75.7675,28.9094 75.0345,29.1894 C74.3015,29.4674 73.5055,29.6064 72.6485,29.6064 C71.7915,29.6064 70.9985,29.4674 70.2715,29.1894 C69.5425,28.9094 68.9125,28.5144 68.3805,28.0034 C67.8495,27.4924 67.4335,26.8784 67.1335,26.1604 C66.8335,25.4424 66.6845,24.6494 66.6845,23.7824 C66.6845,22.9044 66.8335,22.1124 67.1335,21.4044 C67.4335,20.6974 67.8495,20.0954 68.3805,19.5994 C68.9125,19.1034 69.5425,18.7214 70.2715,18.4524 C70.9985,18.1844 71.7915,18.0504 72.6485,18.0504 C73.5055,18.0504 74.3015,18.1844 75.0345,18.4524 C75.7675,18.7214 76.4005,19.1034 76.9325,19.5994 C77.4645,20.0954 77.8795,20.6974 78.1795,21.4044 C78.4785,22.1124 78.6285,22.9044 78.6285,23.7824" id="Fill-6" fill="#00A5E2"></path>
                <path d="M88.0015,29.1188 C87.2885,29.4438 86.4685,29.6068 85.5385,29.6068 C84.6905,29.6068 83.9085,29.4678 83.1905,29.1888 C82.4735,28.9098 81.8515,28.5148 81.3245,28.0038 C80.7975,27.4928 80.3855,26.8808 80.0855,26.1678 C79.7855,25.4548 79.6365,24.6708 79.6365,23.8128 C79.6365,22.9358 79.7875,22.1398 80.0935,21.4278 C80.3975,20.7148 80.8175,20.1088 81.3555,19.6068 C81.8925,19.1068 82.5225,18.7218 83.2455,18.4528 C83.9685,18.1848 84.7475,18.0498 85.5845,18.0498 C86.3585,18.0498 87.1205,18.1878 87.8695,18.4608 C88.6185,18.7348 89.2255,19.1348 89.6895,19.6608 L87.8935,21.4588 C87.6455,21.1178 87.3195,20.8648 86.9175,20.6998 C86.5145,20.5348 86.1015,20.4518 85.6775,20.4518 C85.2135,20.4518 84.7875,20.5368 84.3995,20.7068 C84.0125,20.8778 83.6795,21.1128 83.4005,21.4118 C83.1215,21.7118 82.9045,22.0648 82.7495,22.4728 C82.5955,22.8808 82.5175,23.3278 82.5175,23.8128 C82.5175,24.3088 82.5955,24.7638 82.7495,25.1768 C82.9045,25.5898 83.1185,25.9428 83.3925,26.2378 C83.6665,26.5318 83.9945,26.7618 84.3765,26.9268 C84.7585,27.0928 85.1765,27.1748 85.6315,27.1748 C86.1575,27.1748 86.6165,27.0718 87.0095,26.8658 C87.4015,26.6588 87.7165,26.3898 87.9545,26.0598 L89.7985,27.7948 C89.3135,28.3518 88.7135,28.7938 88.0015,29.1188" id="Fill-8" fill="#00A5E2"></path>
                <path d="M95.6382,21.2726 L94.2432,25.0366 L97.0012,25.0366 L95.6382,21.2726 Z M98.5812,29.3126 L97.7302,27.1596 L93.4852,27.1596 L92.6792,29.3126 L89.7982,29.3126 L94.3992,18.3446 L96.9712,18.3446 L101.5252,29.3126 L98.5812,29.3126 Z" id="Fill-10" fill="#00A5E2"></path>
                <polygon id="Fill-12" fill="#00A5E2" points="105.5787 20.6066 105.5787 29.3126 102.9297 29.3126 102.9297 20.6066 99.8307 20.6066 99.8307 18.3446 108.6767 18.3446 108.6767 20.6066"></polygon>
                <polygon id="Fill-14" fill="#00A5E2" points="109.8853 29.3127 109.8853 18.3447 117.2593 18.3447 117.2593 20.5757 112.4413 20.5757 112.4413 22.6507 116.9953 22.6507 116.9953 24.7737 112.4413 24.7737 112.4413 27.0507 117.5373 27.0507 117.5373 29.3127"></polygon>
                <polygon id="Fill-16" fill="#00A5E2" points="24.2173 41.7057 24.2173 30.7377 31.5913 30.7377 31.5913 32.9687 26.7743 32.9687 26.7743 35.0437 31.3283 35.0437 31.3283 37.1667 26.7743 37.1667 26.7743 39.4437 31.8703 39.4437 31.8703 41.7057"></polygon>
                <path d="M41.9009,39.3747 C41.6789,39.9167 41.3609,40.3817 40.9479,40.7687 C40.5349,41.1557 40.0369,41.4577 39.4539,41.6747 C38.8699,41.8917 38.2209,41.9997 37.5089,41.9997 C36.7869,41.9997 36.1349,41.8917 35.5569,41.6747 C34.9789,41.4577 34.4879,41.1557 34.0859,40.7687 C33.6829,40.3817 33.3729,39.9167 33.1559,39.3747 C32.9389,38.8327 32.8309,38.2307 32.8309,37.5697 L32.8309,30.7377 L35.4639,30.7377 L35.4639,37.3527 C35.4639,37.6527 35.5039,37.9367 35.5809,38.2047 C35.6579,38.4737 35.7769,38.7137 35.9369,38.9247 C36.0969,39.1367 36.3079,39.3047 36.5719,39.4287 C36.8359,39.5527 37.1529,39.6147 37.5249,39.6147 C37.8959,39.6147 38.2139,39.5527 38.4769,39.4287 C38.7409,39.3047 38.9549,39.1367 39.1209,38.9247 C39.2859,38.7137 39.4039,38.4737 39.4759,38.2047 C39.5479,37.9367 39.5859,37.6527 39.5859,37.3527 L39.5859,30.7377 L42.2339,30.7377 L42.2339,37.5697 C42.2339,38.2307 42.1229,38.8327 41.9009,39.3747" id="Fill-18" fill="#00A5E2"></path>
                <path d="M49.4537,34.0998 C49.4537,33.8418 49.3987,33.6328 49.2897,33.4728 C49.1817,33.3118 49.0407,33.1878 48.8697,33.0998 C48.6977,33.0128 48.5067,32.9538 48.2937,32.9218 C48.0807,32.8918 47.8757,32.8758 47.6797,32.8758 L46.2627,32.8758 L46.2627,35.4318 L47.5227,35.4318 C47.7407,35.4318 47.9647,35.4138 48.1927,35.3778 C48.4207,35.3418 48.6287,35.2768 48.8147,35.1838 C49.0027,35.0908 49.1547,34.9568 49.2747,34.7808 C49.3937,34.6058 49.4537,34.3778 49.4537,34.0998 L49.4537,34.0998 Z M49.5617,41.7058 L47.1817,37.3528 L46.2777,37.3528 L46.2777,41.7058 L43.6907,41.7058 L43.6907,30.7378 L47.8737,30.7378 C48.3997,30.7378 48.9137,30.7918 49.4147,30.9008 C49.9157,31.0088 50.3647,31.1918 50.7627,31.4508 C51.1597,31.7088 51.4767,32.0498 51.7157,32.4728 C51.9527,32.8968 52.0717,33.4238 52.0717,34.0528 C52.0717,34.7968 51.8697,35.4218 51.4677,35.9278 C51.0647,36.4328 50.5067,36.7948 49.7947,37.0118 L52.6607,41.7058 L49.5617,41.7058 Z" id="Fill-20" fill="#00A5E2"></path>
                <g id="Group-24" transform="translate(53.000000, 30.000000)">
                    <mask id="mask-2" fill="white">
                        <use xlink:href="#path-1"></use>
                    </mask>
                    <g id="Clip-23"></g>
                    <path d="M9.2183,6.1754 C9.2183,5.7004 9.1413,5.2564 8.9863,4.8424 C8.8313,4.4304 8.6163,4.0764 8.3433,3.7814 C8.0703,3.4874 7.7393,3.2554 7.3513,3.0844 C6.9643,2.9144 6.5383,2.8294 6.0733,2.8294 C5.6093,2.8294 5.1853,2.9144 4.8033,3.0844 C4.4213,3.2554 4.0903,3.4874 3.8123,3.7814 C3.5323,4.0764 3.3193,4.4304 3.1683,4.8424 C3.0193,5.2564 2.9443,5.7004 2.9443,6.1754 C2.9443,6.6714 3.0223,7.1284 3.1763,7.5464 C3.3313,7.9644 3.5453,8.3234 3.8203,8.6234 C4.0933,8.9234 4.4213,9.1574 4.8033,9.3274 C5.1853,9.4984 5.6093,9.5834 6.0733,9.5834 C6.5383,9.5834 6.9613,9.4984 7.3443,9.3274 C7.7263,9.1574 8.0563,8.9234 8.3353,8.6234 C8.6143,8.3234 8.8313,7.9644 8.9863,7.5464 C9.1413,7.1284 9.2183,6.6714 9.2183,6.1754 M12.0533,6.1754 C12.0533,7.0424 11.9033,7.8354 11.6043,8.5534 C11.3043,9.2714 10.8893,9.8854 10.3573,10.3964 C9.8243,10.9074 9.1923,11.3024 8.4593,11.5824 C7.7263,11.8614 6.9303,12.0004 6.0733,12.0004 C5.2163,12.0004 4.4233,11.8614 3.6963,11.5824 C2.9673,11.3024 2.3373,10.9074 1.8063,10.3964 C1.2743,9.8854 0.8583,9.2714 0.5583,8.5534 C0.2593,7.8354 0.1093,7.0424 0.1093,6.1754 C0.1093,5.2974 0.2593,4.5054 0.5583,3.7974 C0.8583,3.0904 1.2743,2.4884 1.8063,1.9924 C2.3373,1.4974 2.9673,1.1144 3.6963,0.8464 C4.4233,0.5784 5.2163,0.4434 6.0733,0.4434 C6.9303,0.4434 7.7263,0.5784 8.4593,0.8464 C9.1923,1.1144 9.8243,1.4974 10.3573,1.9924 C10.8893,2.4884 11.3043,3.0904 11.6043,3.7974 C11.9033,4.5054 12.0533,5.2974 12.0533,6.1754" id="Fill-22" fill="#00A5E2" mask="url(#mask-2)"></path>
                </g>
                <path d="M72.19,34.1305 C72.19,33.8725 72.138,33.6605 72.035,33.4955 C71.932,33.3305 71.793,33.2005 71.617,33.1085 C71.441,33.0155 71.242,32.9535 71.02,32.9225 C70.797,32.8915 70.568,32.8755 70.331,32.8755 L69.169,32.8755 L69.169,35.4625 L70.284,35.4625 C70.533,35.4625 70.77,35.4425 70.998,35.4015 C71.224,35.3595 71.428,35.2875 71.609,35.1835 C71.79,35.0805 71.932,34.9435 72.035,34.7735 C72.138,34.6035 72.19,34.3885 72.19,34.1305 M74.839,34.1145 C74.839,34.7555 74.72,35.2955 74.483,35.7345 C74.245,36.1725 73.925,36.5265 73.522,36.7955 C73.12,37.0635 72.655,37.2595 72.128,37.3835 C71.601,37.5075 71.053,37.5695 70.486,37.5695 L69.169,37.5695 L69.169,41.7055 L66.52,41.7055 L66.52,30.7375 L70.547,30.7375 C71.147,30.7375 71.707,30.7975 72.229,30.9165 C72.75,31.0345 73.205,31.2255 73.591,31.4885 C73.979,31.7525 74.284,32.0985 74.505,32.5265 C74.728,32.9555 74.839,33.4855 74.839,34.1145" id="Fill-25" fill="#00A5E2"></path>
                <polygon id="Fill-27" fill="#00A5E2" points="76.2076 41.7057 76.2076 30.7377 83.5816 30.7377 83.5816 32.9687 78.7636 32.9687 78.7636 35.0437 83.3176 35.0437 83.3176 37.1667 78.7636 37.1667 78.7636 39.4437 83.8596 39.4437 83.8596 41.7057"></polygon>
                <polygon id="Fill-29" fill="#00A5E2" points="8.4966 17.5451 5.3506 27.2351 13.5886 21.2461"></polygon>
                <polygon id="Fill-31" fill="#00A5E2" points="24.9683 21.5236 14.8733 21.5236 16.7993 27.4496"></polygon>
                <polygon id="Fill-33" fill="#00A5E2" points="9.1138 25.3537 17.2788 31.2877 14.1678 21.6807"></polygon>
                <polygon id="Fill-35" fill="#00A5E2" points="10.7798 10.5158 8.7208 16.8548 14.1758 20.8198 19.5938 16.8828 19.5898 16.8698 19.5918 16.8688 17.5278 10.5158 17.4948 10.5158 17.4918 10.5078 10.8028 10.5078 10.8008 10.5158"></polygon>
                <g id="Group-39" transform="translate(11.000000, 0.000000)">
                    <mask id="mask-4" fill="white">
                        <use xlink:href="#path-3"></use>
                    </mask>
                    <g id="Clip-38"></g>
                    <polygon id="Fill-37" fill="#00A5E2" mask="url(#mask-4)" points="3.1656 0.2116 0.0286 9.8166 6.2696 9.8166"></polygon>
                </g>
                <g id="Group-42" transform="translate(0.000000, 10.000000)">
                    <mask id="mask-6" fill="white">
                        <use xlink:href="#path-5"></use>
                    </mask>
                    <g id="Clip-41"></g>
                    <polyline id="Fill-40" fill="#FBB900" mask="url(#mask-6)" points="8.1421 6.4015 10.0541 0.5155 -0.0009 0.5155 2.2121 2.1245"></polyline>
                </g>
            </g>
        </g>
    </g>
</svg>