<?xml version="1.0" encoding="UTF-8"?>
<svg width="120px" height="43px" viewBox="0 0 120 43" version="1.1" xmlns="http://www.w3.org/2000/svg" xmlns:xlink="http://www.w3.org/1999/xlink">
    <!-- Generator: Sketch 42 (36781) - http://www.bohemiancoding.com/sketch -->
    <title>logo_02</title>
    <desc>Created with Sketch.</desc>
    <defs>
        <polygon id="path-1" points="12.7826 12 0.8386 12 0.8386 0.4434 12.7826 0.4434 12.7826 12"></polygon>
        <polygon id="path-3" points="6.92 0.369 0.327 0.369 0.327 10.5178 6.92 10.5178 6.92 0.369"></polygon>
    </defs>
    <g id="Landing-Page" stroke="none" stroke-width="1" fill="none" fill-rule="evenodd">
        <g id="Page-1" transform="translate(0.000000, -1.000000)">
            <path d="M40.7406,22.9039 L39.3466,26.6679 L42.1046,26.6679 L40.7406,22.9039 Z M43.6846,30.9439 L42.8326,28.7909 L38.5886,28.7909 L37.7826,30.9439 L34.9016,30.9439 L39.5026,19.9759 L42.0736,19.9759 L46.6286,30.9439 L43.6846,30.9439 Z" id="Fill-1" fill="#00A5E2"></path>
            <g id="Group-43" transform="translate(0.000000, 0.631300)">
                <path d="M54.6273,24.7975 C54.6273,24.1775 54.5263,23.6645 54.3243,23.2565 C54.1233,22.8485 53.8553,22.5235 53.5193,22.2795 C53.1833,22.0375 52.8013,21.8645 52.3723,21.7615 C51.9433,21.6585 51.5023,21.6065 51.0483,21.6065 L49.7313,21.6065 L49.7313,28.0195 L50.9863,28.0195 C51.4613,28.0195 51.9183,27.9655 52.3563,27.8575 C52.7953,27.7485 53.1833,27.5705 53.5193,27.3225 C53.8553,27.0745 54.1233,26.7445 54.3243,26.3315 C54.5263,25.9185 54.6273,25.4075 54.6273,24.7975 M57.3843,24.7975 C57.3843,25.7575 57.2063,26.5865 56.8503,27.2845 C56.4923,27.9815 56.0233,28.5545 55.4393,29.0035 C54.8563,29.4525 54.1973,29.7835 53.4653,29.9955 C52.7313,30.2075 51.9873,30.3125 51.2343,30.3125 L47.1443,30.3125 L47.1443,19.3445 L51.1103,19.3445 C51.8853,19.3445 52.6483,19.4355 53.4023,19.6155 C54.1563,19.7965 54.8283,20.0955 55.4163,20.5145 C56.0053,20.9325 56.4803,21.4925 56.8423,22.1945 C57.2033,22.8975 57.3843,23.7645 57.3843,24.7975" id="Fill-2" fill="#00A5E2"></path>
                <polygon id="Fill-4" fill="#00A5E2" points="64.1839 30.3127 61.5359 30.3127 57.3839 19.3447 60.3589 19.3447 62.8989 27.1217 62.9599 27.1217 65.4859 19.3447 68.4129 19.3447"></polygon>
                <path d="M77.5228,24.7824 C77.5228,24.3074 77.4448,23.8634 77.2908,23.4494 C77.1358,23.0364 76.9208,22.6824 76.6478,22.3884 C76.3748,22.0944 76.0438,21.8624 75.6568,21.6914 C75.2688,21.5214 74.8428,21.4364 74.3778,21.4364 C73.9138,21.4364 73.4898,21.5214 73.1078,21.6914 C72.7258,21.8624 72.3948,22.0944 72.1168,22.3884 C71.8368,22.6824 71.6238,23.0364 71.4728,23.4494 C71.3238,23.8634 71.2488,24.3074 71.2488,24.7824 C71.2488,25.2784 71.3268,25.7354 71.4808,26.1534 C71.6358,26.5714 71.8498,26.9304 72.1238,27.2294 C72.3978,27.5294 72.7258,27.7644 73.1078,27.9344 C73.4898,28.1054 73.9138,28.1904 74.3778,28.1904 C74.8428,28.1904 75.2658,28.1054 75.6488,27.9344 C76.0308,27.7644 76.3608,27.5294 76.6398,27.2294 C76.9188,26.9304 77.1358,26.5714 77.2908,26.1534 C77.4448,25.7354 77.5228,25.2784 77.5228,24.7824 M80.3578,24.7824 C80.3578,25.6494 80.2078,26.4424 79.9088,27.1604 C79.6088,27.8784 79.1928,28.4924 78.6618,29.0034 C78.1288,29.5144 77.4968,29.9094 76.7638,30.1894 C76.0308,30.4674 75.2348,30.6064 74.3778,30.6064 C73.5208,30.6064 72.7278,30.4674 72.0008,30.1894 C71.2718,29.9094 70.6418,29.5144 70.1098,29.0034 C69.5788,28.4924 69.1628,27.8784 68.8628,27.1604 C68.5628,26.4424 68.4138,25.6494 68.4138,24.7824 C68.4138,23.9044 68.5628,23.1124 68.8628,22.4044 C69.1628,21.6974 69.5788,21.0954 70.1098,20.5994 C70.6418,20.1034 71.2718,19.7214 72.0008,19.4524 C72.7278,19.1844 73.5208,19.0504 74.3778,19.0504 C75.2348,19.0504 76.0308,19.1844 76.7638,19.4524 C77.4968,19.7214 78.1288,20.1034 78.6618,20.5994 C79.1928,21.0954 79.6088,21.6974 79.9088,22.4044 C80.2078,23.1124 80.3578,23.9044 80.3578,24.7824" id="Fill-6" fill="#00A5E2"></path>
                <path d="M89.7308,30.1188 C89.0178,30.4438 88.1978,30.6068 87.2678,30.6068 C86.4198,30.6068 85.6378,30.4678 84.9198,30.1888 C84.2028,29.9098 83.5808,29.5148 83.0528,29.0038 C82.5268,28.4928 82.1138,27.8808 81.8148,27.1678 C81.5148,26.4548 81.3658,25.6708 81.3658,24.8128 C81.3658,23.9358 81.5168,23.1398 81.8218,22.4278 C82.1268,21.7148 82.5468,21.1088 83.0848,20.6068 C83.6218,20.1068 84.2518,19.7218 84.9748,19.4528 C85.6978,19.1848 86.4768,19.0498 87.3138,19.0498 C88.0878,19.0498 88.8498,19.1878 89.5988,19.4608 C90.3478,19.7348 90.9548,20.1348 91.4178,20.6608 L89.6228,22.4588 C89.3748,22.1178 89.0488,21.8648 88.6468,21.6998 C88.2438,21.5348 87.8308,21.4518 87.4068,21.4518 C86.9428,21.4518 86.5158,21.5368 86.1288,21.7068 C85.7418,21.8778 85.4088,22.1128 85.1298,22.4118 C84.8508,22.7118 84.6338,23.0648 84.4788,23.4728 C84.3248,23.8808 84.2468,24.3278 84.2468,24.8128 C84.2468,25.3088 84.3248,25.7638 84.4788,26.1768 C84.6338,26.5898 84.8478,26.9428 85.1218,27.2378 C85.3958,27.5318 85.7238,27.7618 86.1058,27.9268 C86.4878,28.0928 86.9058,28.1748 87.3608,28.1748 C87.8868,28.1748 88.3458,28.0718 88.7388,27.8658 C89.1308,27.6588 89.4458,27.3898 89.6838,27.0598 L91.5278,28.7948 C91.0428,29.3518 90.4428,29.7938 89.7308,30.1188" id="Fill-8" fill="#00A5E2"></path>
                <path d="M97.3675,22.2726 L95.9725,26.0366 L98.7305,26.0366 L97.3675,22.2726 Z M100.3105,30.3126 L99.4585,28.1596 L95.2145,28.1596 L94.4085,30.3126 L91.5275,30.3126 L96.1285,19.3446 L98.7005,19.3446 L103.2545,30.3126 L100.3105,30.3126 Z" id="Fill-10" fill="#00A5E2"></path>
                <polygon id="Fill-12" fill="#00A5E2" points="107.308 21.6066 107.308 30.3126 104.659 30.3126 104.659 21.6066 101.56 21.6066 101.56 19.3446 110.406 19.3446 110.406 21.6066"></polygon>
                <polygon id="Fill-14" fill="#00A5E2" points="111.6146 30.3127 111.6146 19.3447 118.9886 19.3447 118.9886 21.5757 114.1706 21.5757 114.1706 23.6507 118.7246 23.6507 118.7246 25.7737 114.1706 25.7737 114.1706 28.0507 119.2666 28.0507 119.2666 30.3127"></polygon>
                <polygon id="Fill-16" fill="#00A5E2" points="25.9466 42.7057 25.9466 31.7377 33.3206 31.7377 33.3206 33.9687 28.5026 33.9687 28.5026 36.0437 33.0576 36.0437 33.0576 38.1667 28.5026 38.1667 28.5026 40.4437 33.5986 40.4437 33.5986 42.7057"></polygon>
                <path d="M43.6302,40.3747 C43.4072,40.9167 43.0902,41.3817 42.6772,41.7687 C42.2642,42.1557 41.7662,42.4577 41.1832,42.6747 C40.5992,42.8917 39.9502,42.9997 39.2382,42.9997 C38.5162,42.9997 37.8642,42.8917 37.2862,42.6747 C36.7082,42.4577 36.2172,42.1557 35.8152,41.7687 C35.4112,41.3817 35.1022,40.9167 34.8852,40.3747 C34.6682,39.8327 34.5602,39.2307 34.5602,38.5697 L34.5602,31.7377 L37.1932,31.7377 L37.1932,38.3527 C37.1932,38.6527 37.2322,38.9367 37.3102,39.2047 C37.3872,39.4737 37.5052,39.7137 37.6662,39.9247 C37.8252,40.1367 38.0372,40.3047 38.3012,40.4287 C38.5652,40.5527 38.8822,40.6147 39.2542,40.6147 C39.6252,40.6147 39.9432,40.5527 40.2062,40.4287 C40.4702,40.3047 40.6842,40.1367 40.8492,39.9247 C41.0152,39.7137 41.1332,39.4737 41.2052,39.2047 C41.2772,38.9367 41.3142,38.6527 41.3142,38.3527 L41.3142,31.7377 L43.9632,31.7377 L43.9632,38.5697 C43.9632,39.2307 43.8522,39.8327 43.6302,40.3747" id="Fill-18" fill="#00A5E2"></path>
                <path d="M51.183,35.0998 C51.183,34.8418 51.128,34.6328 51.019,34.4728 C50.911,34.3118 50.77,34.1878 50.599,34.0998 C50.427,34.0128 50.236,33.9538 50.023,33.9218 C49.81,33.8918 49.605,33.8758 49.408,33.8758 L47.992,33.8758 L47.992,36.4318 L49.252,36.4318 C49.47,36.4318 49.693,36.4138 49.921,36.3778 C50.15,36.3418 50.358,36.2768 50.544,36.1838 C50.732,36.0908 50.884,35.9568 51.003,35.7808 C51.122,35.6058 51.183,35.3778 51.183,35.0998 L51.183,35.0998 Z M51.291,42.7058 L48.91,38.3528 L48.007,38.3528 L48.007,42.7058 L45.42,42.7058 L45.42,31.7378 L49.603,31.7378 C50.129,31.7378 50.643,31.7918 51.144,31.9008 C51.645,32.0088 52.094,32.1918 52.492,32.4508 C52.889,32.7088 53.206,33.0498 53.445,33.4728 C53.682,33.8968 53.8,34.4238 53.8,35.0528 C53.8,35.7968 53.599,36.4218 53.197,36.9278 C52.793,37.4328 52.236,37.7948 51.524,38.0118 L54.389,42.7058 L51.291,42.7058 Z" id="Fill-20" fill="#00A5E2"></path>
                <g id="Group-24" transform="translate(54.000000, 31.000000)">
                    <mask id="mask-2" fill="white">
                        <use xlink:href="#path-1"></use>
                    </mask>
                    <g id="Clip-23"></g>
                    <path d="M9.9476,6.1754 C9.9476,5.7004 9.8706,5.2564 9.7156,4.8424 C9.5596,4.4304 9.3456,4.0764 9.0726,3.7814 C8.7986,3.4874 8.4686,3.2554 8.0806,3.0844 C7.6936,2.9144 7.2676,2.8294 6.8026,2.8294 C6.3386,2.8294 5.9146,2.9144 5.5326,3.0844 C5.1506,3.2554 4.8196,3.4874 4.5416,3.7814 C4.2616,4.0764 4.0486,4.4304 3.8976,4.8424 C3.7486,5.2564 3.6736,5.7004 3.6736,6.1754 C3.6736,6.6714 3.7516,7.1284 3.9056,7.5464 C4.0606,7.9644 4.2746,8.3234 4.5486,8.6234 C4.8226,8.9234 5.1506,9.1574 5.5326,9.3274 C5.9146,9.4984 6.3386,9.5834 6.8026,9.5834 C7.2676,9.5834 7.6906,9.4984 8.0736,9.3274 C8.4556,9.1574 8.7856,8.9234 9.0646,8.6234 C9.3436,8.3234 9.5596,7.9644 9.7156,7.5464 C9.8706,7.1284 9.9476,6.6714 9.9476,6.1754 M12.7826,6.1754 C12.7826,7.0424 12.6326,7.8354 12.3336,8.5534 C12.0336,9.2714 11.6186,9.8854 11.0866,10.3964 C10.5536,10.9074 9.9216,11.3024 9.1886,11.5824 C8.4556,11.8614 7.6596,12.0004 6.8026,12.0004 C5.9456,12.0004 5.1526,11.8614 4.4256,11.5824 C3.6966,11.3024 3.0666,10.9074 2.5356,10.3964 C2.0036,9.8854 1.5876,9.2714 1.2876,8.5534 C0.9886,7.8354 0.8386,7.0424 0.8386,6.1754 C0.8386,5.2974 0.9886,4.5054 1.2876,3.7974 C1.5876,3.0904 2.0036,2.4884 2.5356,1.9924 C3.0666,1.4974 3.6966,1.1144 4.4256,0.8464 C5.1526,0.5784 5.9456,0.4434 6.8026,0.4434 C7.6596,0.4434 8.4556,0.5784 9.1886,0.8464 C9.9216,1.1144 10.5536,1.4974 11.0866,1.9924 C11.6186,2.4884 12.0336,3.0904 12.3336,3.7974 C12.6326,4.5054 12.7826,5.2974 12.7826,6.1754" id="Fill-22" fill="#00A5E2" mask="url(#mask-2)"></path>
                </g>
                <path d="M73.9193,35.1305 C73.9193,34.8725 73.8663,34.6605 73.7643,34.4955 C73.6603,34.3305 73.5223,34.2005 73.3463,34.1085 C73.1703,34.0155 72.9713,33.9535 72.7493,33.9225 C72.5263,33.8915 72.2973,33.8755 72.0603,33.8755 L70.8983,33.8755 L70.8983,36.4625 L72.0133,36.4625 C72.2613,36.4625 72.4993,36.4425 72.7263,36.4015 C72.9533,36.3595 73.1573,36.2875 73.3383,36.1835 C73.5193,36.0805 73.6603,35.9435 73.7643,35.7735 C73.8663,35.6035 73.9193,35.3885 73.9193,35.1305 M76.5673,35.1145 C76.5673,35.7555 76.4483,36.2955 76.2123,36.7345 C75.9743,37.1725 75.6533,37.5265 75.2513,37.7955 C74.8483,38.0635 74.3843,38.2595 73.8573,38.3835 C73.3303,38.5075 72.7823,38.5695 72.2153,38.5695 L70.8983,38.5695 L70.8983,42.7055 L68.2493,42.7055 L68.2493,31.7375 L72.2763,31.7375 C72.8753,31.7375 73.4363,31.7975 73.9573,31.9165 C74.4793,32.0345 74.9343,32.2255 75.3203,32.4885 C75.7083,32.7525 76.0133,33.0985 76.2343,33.5265 C76.4573,33.9555 76.5673,34.4855 76.5673,35.1145" id="Fill-25" fill="#00A5E2"></path>
                <polygon id="Fill-27" fill="#00A5E2" points="77.9359 42.7057 77.9359 31.7377 85.3099 31.7377 85.3099 33.9687 80.4929 33.9687 80.4929 36.0437 85.0469 36.0437 85.0469 38.1667 80.4929 38.1667 80.4929 40.4437 85.5889 40.4437 85.5889 42.7057"></polygon>
                <polygon id="Fill-29" fill="#00A5E2" points="18.4691 20.8556 15.1441 31.0946 23.8501 24.7666"></polygon>
                <polygon id="Fill-31" fill="#00A5E2" points="29.8929 11.256 19.2269 11.256 21.2609 17.518"></polygon>
                <polygon id="Fill-33" fill="#FBB900" points="18.8011 20.2287 27.4281 26.4987 24.1411 16.3477"></polygon>
                <polygon id="Fill-35" fill="#00A5E2" points="11.3304 11.256 9.1534 17.953 14.9194 22.144 20.6434 17.983 20.6384 17.969 20.6404 17.968 18.4594 11.256 18.4244 11.256 18.4214 11.248 11.3534 11.248 11.3514 11.256"></polygon>
                <g id="Group-39" transform="translate(7.000000, 0.000000)">
                    <mask id="mask-4" fill="white">
                        <use xlink:href="#path-3"></use>
                    </mask>
                    <g id="Clip-38"></g>
                    <polygon id="Fill-37" fill="#00A5E2" mask="url(#mask-4)" points="3.642 0.3688 0.327 10.5178 6.92 10.5178"></polygon>
                </g>
                <g id="Group-42" transform="translate(0.000000, 11.000000)" fill="#00A5E2">
                    <polygon id="Fill-40" points="8.6029 6.4665 10.6239 0.2475 -0.0001 0.2475 2.3379 1.9465"></polygon>
                </g>
            </g>
        </g>
    </g>
</svg>