<svg width="735" height="360" viewBox="0 0 735 360" xmlns="http://www.w3.org/2000/svg"><title>pattern_triangles_02</title><g fill="none" fill-rule="evenodd"><path fill="#FCB813" d="M0 0h735v360H0z"/><path fill="#00AAE6" d="M15 135L0 180h30"/><path fill="#FCB813" d="M15 315L0 360h30"/><path fill="#00AAE6" d="M135 135l-15 45h30"/><path fill="#73BE46" d="M135 315l-15 45h30M45 135l-15 45h30"/><path fill="#FCB813" d="M45 315l-15 45h30M165 135l-15 45h30M165 315l-15 45h30"/><path fill="#00AAE6" d="M75 135l-15 45h30"/><path fill="#FCB813" d="M75 315l-15 45h30M195 135l-15 45h30M195 315l-15 45h30"/><path fill="#CD148C" d="M105 135l-15 45h30"/><path fill="#73BE46" d="M105 315l-15 45h30"/><path fill="#FCB813" d="M225 135l-15 45h30"/><path fill="#CD148C" d="M225 315l-15 45h30"/><path fill="#FCB813" d="M15 45L0 90h30M15 225L0 270h30M135 45l-15 45h30"/><path fill="#00AAE6" d="M135 225l-15 45h30"/><path fill="#FCB813" d="M45 45L30 90h30"/><path fill="#00AAE6" d="M45 225l-15 45h30"/><path fill="#FCB813" d="M165 45l-15 45h30"/><path fill="#00AAE6" d="M165 225l-15 45h30M75 45L60 90h30"/><path fill="#73BE46" d="M75 225l-15 45h30"/><path fill="#FCB813" d="M195 45l-15 45h30"/><path fill="#CD148C" d="M195 225l-15 45h30"/><path fill="#FCB813" d="M105 45L90 90h30"/><path fill="#CD148C" d="M105 225l-15 45h30M225 45l-15 45h30"/><path fill="#73BE46" d="M225 225l-15 45h30"/><path fill="#CD148C" d="M30 90l-15 45h30"/><path fill="#FCB813" d="M30 270l-15 45h30M150 90l-15 45h30M150 270l-15 45h30"/><path fill="#00AAE6" d="M60 90l-15 45h30"/><path fill="#FCB813" d="M60 270l-15 45h30"/><path fill="#CD148C" d="M180 90l-15 45h30"/><path fill="#FCB813" d="M180 270l-15 45h30"/><path fill="#73BE46" d="M90 90l-15 45h30"/><path fill="#CD148C" d="M90 270l-15 45h30"/><path fill="#FCB813" d="M210 90l-15 45h30M210 270l-15 45h30M120 90l-15 45h30M120 270l-15 45h30"/><path fill="#73BE46" d="M240 90l-15 45h30"/><path fill="#FCB813" d="M240 270l-15 45h30"/><path fill="#00AAE6" d="M30 0L15 45h30"/><path fill="#FCB813" d="M30 180l-15 45h30"/><path fill="#CD148C" d="M150 0l-15 45h30"/><path fill="#FCB813" d="M150 180l-15 45h30M60 0L45 45h30"/><path fill="#00AAE6" d="M60 180l-15 45h30"/><path fill="#FCB813" d="M180 0l-15 45h30M180 180l-15 45h30M90 0L75 45h30M90 180l-15 45h30"/><path fill="#00AAE6" d="M210 0l-15 45h30"/><path fill="#CD148C" d="M210 180l-15 45h30"/><path fill="#00AAE6" d="M120 0l-15 45h30"/><path fill="#CD148C" d="M120 180l-15 45h30"/><path fill="#FCB813" d="M240 0l-15 45h30M240 180l-15 45h30M105 45l15-45H90"/><path fill="#73BE46" d="M105 225l15-45H90"/><path fill="#FCB813" d="M225 45l15-45h-30M225 225l15-45h-30"/><path fill="#73BE46" d="M75 45L90 0H60"/><path fill="#FCB813" d="M75 225l15-45H60M195 45l15-45h-30M195 225l15-45h-30M45 45L60 0H30"/><path fill="#CD148C" d="M45 225l15-45H30"/><path fill="#73BE46" d="M165 45l15-45h-30"/><path fill="#FCB813" d="M165 225l15-45h-30"/><path fill="#73BE46" d="M15 45L30 0H0"/><path fill="#FCB813" d="M15 225l15-45H0M135 45l15-45h-30M135 225l15-45h-30M105 135l15-45H90M105 315l15-45H90M225 135l15-45h-30M225 315l15-45h-30M75 135l15-45H60"/><path fill="#00AAE6" d="M75 315l15-45H60"/><path fill="#FCB813" d="M195 135l15-45h-30M195 315l15-45h-30M45 135l15-45H30M45 315l15-45H30"/><path fill="#00AAE6" d="M165 135l15-45h-30"/><path fill="#FCB813" d="M165 315l15-45h-30"/><path fill="#00AAE6" d="M15 135l15-45H0"/><path fill="#73BE46" d="M15 315l15-45H0"/><path fill="#FCB813" d="M135 135l15-45h-30"/><path fill="#73BE46" d="M135 315l15-45h-30"/><path fill="#CD148C" d="M120 90l15-45h-30"/><path fill="#FCB813" d="M120 270l15-45h-30M240 90l15-45h-30M240 270l15-45h-30M90 90l15-45H75M90 270l15-45H75M210 90l15-45h-30M210 270l15-45h-30M60 90l15-45H45M60 270l15-45H45M180 90l15-45h-30M180 270l15-45h-30"/><path fill="#73BE46" d="M30 90l15-45H15"/><path fill="#FCB813" d="M30 270l15-45H15M150 90l15-45h-30M150 270l15-45h-30M120 180l15-45h-30M120 360l15-45h-30M240 180l15-45h-30M240 360l15-45h-30M90 180l15-45H75M90 360l15-45H75"/><path fill="#73BE46" d="M210 180l15-45h-30"/><path fill="#00AAE6" d="M210 360l15-45h-30"/><path fill="#FCB813" d="M60 180l15-45H45"/><path fill="#CD148C" d="M60 360l15-45H45"/><path fill="#FCB813" d="M180 180l15-45h-30"/><path fill="#CD148C" d="M180 360l15-45h-30"/><path fill="#FCB813" d="M30 180l15-45H15"/><path fill="#00AAE6" d="M30 360l15-45H15"/><path fill="#FCB813" d="M150 180l15-45h-30M150 360l15-45h-30"/><path fill="#00AAE6" d="M255 135l-15 45h30"/><path fill="#FCB813" d="M255 315l-15 45h30"/><path fill="#CD148C" d="M285 135l-15 45h30"/><path fill="#73BE46" d="M285 315l-15 45h30"/><path fill="#FCB813" d="M315 135l-15 45h30M315 315l-15 45h30M345 135l-15 45h30M345 315l-15 45h30M255 45l-15 45h30M255 225l-15 45h30"/><path fill="#00AAE6" d="M285 45l-15 45h30M285 225l-15 45h30"/><path fill="#FCB813" d="M315 45l-15 45h30M315 225l-15 45h30M345 45l-15 45h30"/><path fill="#CD148C" d="M345 225l-15 45h30"/><path fill="#FCB813" d="M270 90l-15 45h30"/><path fill="#73BE46" d="M270 270l-15 45h30"/><path fill="#FCB813" d="M300 90l-15 45h30M300 270l-15 45h30"/><path fill="#CD148C" d="M330 90l-15 45h30"/><path fill="#FCB813" d="M330 270l-15 45h30M360 90l-15 45h30M360 270l-15 45h30M270 0l-15 45h30M270 180l-15 45h30M300 0l-15 45h30"/><path fill="#CD148C" d="M300 180l-15 45h30"/><path fill="#FCB813" d="M330 0l-15 45h30M330 180l-15 45h30M360 0l-15 45h30"/><path fill="#00AAE6" d="M360 180l-15 45h30"/><path fill="#73BE46" d="M345 45l15-45h-30"/><path fill="#CD148C" d="M345 225l15-45h-30"/><path fill="#FCB813" d="M315 45l15-45h-30M315 225l15-45h-30"/><path fill="#73BE46" d="M285 45l15-45h-30"/><path fill="#FCB813" d="M285 225l15-45h-30M255 45l15-45h-30"/><path fill="#73BE46" d="M255 225l15-45h-30"/><path fill="#FCB813" d="M345 135l15-45h-30M345 315l15-45h-30M315 135l15-45h-30"/><path fill="#CD148C" d="M315 315l15-45h-30"/><path fill="#FCB813" d="M285 135l15-45h-30M285 315l15-45h-30M255 135l15-45h-30M255 315l15-45h-30"/><path fill="#CD148C" d="M360 90l15-45h-30"/><path fill="#FCB813" d="M360 270l15-45h-30M330 90l15-45h-30M330 270l15-45h-30"/><path fill="#73BE46" d="M300 90l15-45h-30"/><path fill="#FCB813" d="M300 270l15-45h-30M270 90l15-45h-30M270 270l15-45h-30M360 180l15-45h-30M360 360l15-45h-30"/><path fill="#73BE46" d="M330 180l15-45h-30"/><path fill="#CD148C" d="M330 360l15-45h-30"/><path fill="#FCB813" d="M300 180l15-45h-30M300 360l15-45h-30M270 180l15-45h-30M270 360l15-45h-30M375 135l-15 45h30"/><path fill="#73BE46" d="M375 315l-15 45h30M405 135l-15 45h30"/><path fill="#FCB813" d="M405 315l-15 45h30M435 135l-15 45h30"/><path fill="#CD148C" d="M435 315l-15 45h30"/><path fill="#FCB813" d="M465 135l-15 45h30M465 315l-15 45h30M375 45l-15 45h30M375 225l-15 45h30M405 45l-15 45h30M405 225l-15 45h30M435 45l-15 45h30"/><path fill="#CD148C" d="M435 225l-15 45h30"/><path fill="#73BE46" d="M465 45l-15 45h30"/><path fill="#FCB813" d="M465 225l-15 45h30M390 90l-15 45h30"/><path fill="#00AAE6" d="M390 270l-15 45h30"/><path fill="#CD148C" d="M420 90l-15 45h30"/><path fill="#73BE46" d="M420 270l-15 45h30"/><path fill="#FCB813" d="M450 90l-15 45h30M450 270l-15 45h30M480 90l-15 45h30M480 270l-15 45h30"/><path fill="#00AAE6" d="M390 0l-15 45h30"/><path fill="#FCB813" d="M390 180l-15 45h30M420 0l-15 45h30M420 180l-15 45h30M450 0l-15 45h30M450 180l-15 45h30M480 0l-15 45h30"/><path fill="#CD148C" d="M480 180l-15 45h30"/><path fill="#FCB813" d="M465 45l15-45h-30M465 225l15-45h-30"/><path fill="#CD148C" d="M435 45l15-45h-30"/><path fill="#73BE46" d="M435 225l15-45h-30"/><path fill="#FCB813" d="M405 45l15-45h-30M405 225l15-45h-30M375 45l15-45h-30M375 225l15-45h-30M465 135l15-45h-30"/><path fill="#00AAE6" d="M465 315l15-45h-30"/><path fill="#FCB813" d="M435 135l15-45h-30M435 315l15-45h-30M405 135l15-45h-30M405 315l15-45h-30"/><path fill="#00AAE6" d="M375 135l15-45h-30"/><path fill="#FCB813" d="M375 315l15-45h-30M480 90l15-45h-30"/><path fill="#00AAE6" d="M480 270l15-45h-30"/><path fill="#FCB813" d="M450 90l15-45h-30M450 270l15-45h-30M420 90l15-45h-30M420 270l15-45h-30M390 90l15-45h-30"/><path fill="#73BE46" d="M390 270l15-45h-30"/><path fill="#FCB813" d="M480 180l15-45h-30M480 360l15-45h-30"/><path fill="#00AAE6" d="M450 180l15-45h-30"/><path fill="#FCB813" d="M450 360l15-45h-30M420 180l15-45h-30M420 360l15-45h-30M390 180l15-45h-30M390 360l15-45h-30"/><path fill="#CD148C" d="M495 135l-15 45h30"/><path fill="#FCB813" d="M495 315l-15 45h30"/><path fill="#73BE46" d="M525 135l-15 45h30"/><path fill="#FCB813" d="M525 315l-15 45h30M555 135l-15 45h30M555 315l-15 45h30M585 135l-15 45h30"/><path fill="#73BE46" d="M585 315l-15 45h30"/><path fill="#FCB813" d="M495 45l-15 45h30M495 225l-15 45h30"/><path fill="#00AAE6" d="M525 45l-15 45h30"/><path fill="#FCB813" d="M525 225l-15 45h30M555 45l-15 45h30M555 225l-15 45h30M585 45l-15 45h30M585 225l-15 45h30"/><path fill="#CD148C" d="M510 90l-15 45h30M510 270l-15 45h30"/><path fill="#FCB813" d="M540 90l-15 45h30M540 270l-15 45h30M570 90l-15 45h30M570 270l-15 45h30M600 90l-15 45h30"/><path fill="#CD148C" d="M600 270l-15 45h30"/><path fill="#FCB813" d="M510 0l-15 45h30M510 180l-15 45h30M540 0l-15 45h30M540 180l-15 45h30M570 0l-15 45h30M570 180l-15 45h30M600 0l-15 45h30"/><path fill="#CD148C" d="M600 180l-15 45h30"/><path fill="#FCB813" d="M585 45l15-45h-30M585 225l15-45h-30"/><path fill="#00AAE6" d="M555 45l15-45h-30M555 225l15-45h-30"/><path fill="#FCB813" d="M525 45l15-45h-30M525 225l15-45h-30"/><path fill="#CD148C" d="M495 45l15-45h-30"/><path fill="#73BE46" d="M495 225l15-45h-30"/><path fill="#FCB813" d="M585 135l15-45h-30M585 315l15-45h-30"/><path fill="#73BE46" d="M555 135l15-45h-30"/><path fill="#FCB813" d="M555 315l15-45h-30"/><path fill="#00AAE6" d="M525 135l15-45h-30"/><path fill="#CD148C" d="M525 315l15-45h-30"/><path fill="#73BE46" d="M495 135l15-45h-30"/><path fill="#FCB813" d="M495 315l15-45h-30"/><path fill="#CD148C" d="M600 90l15-45h-30"/><path fill="#FCB813" d="M600 270l15-45h-30M570 90l15-45h-30"/><path fill="#CD148C" d="M570 270l15-45h-30"/><path fill="#FCB813" d="M540 90l15-45h-30"/><path fill="#73BE46" d="M540 270l15-45h-30"/><path fill="#FCB813" d="M510 90l15-45h-30M510 270l15-45h-30M600 180l15-45h-30M600 360l15-45h-30"/><path fill="#00AAE6" d="M570 180l15-45h-30"/><path fill="#CD148C" d="M570 360l15-45h-30"/><path fill="#FCB813" d="M540 180l15-45h-30M540 360l15-45h-30M510 180l15-45h-30"/><path fill="#00AAE6" d="M510 360l15-45h-30"/><path fill="#FCB813" d="M615 135l-15 45h30M615 315l-15 45h30"/><path fill="#73BE46" d="M645 135l-15 45h30M645 315l-15 45h30"/><path fill="#00AAE6" d="M675 135l-15 45h30"/><path fill="#FCB813" d="M675 315l-15 45h30M705 135l-15 45h30M705 315l-15 45h30M615 45l-15 45h30M615 225l-15 45h30M645 45l-15 45h30"/><path fill="#73BE46" d="M645 225l-15 45h30"/><path fill="#FCB813" d="M675 45l-15 45h30"/><path fill="#CD148C" d="M675 225l-15 45h30M705 45l-15 45h30"/><path fill="#FCB813" d="M705 225l-15 45h30M630 90l-15 45h30M630 270l-15 45h30"/><path fill="#73BE46" d="M660 90l-15 45h30"/><path fill="#FCB813" d="M660 270l-15 45h30"/><path fill="#00AAE6" d="M690 90l-15 45h30"/><path fill="#73BE46" d="M690 270l-15 45h30"/><path fill="#FCB813" d="M720 90l-15 45h30"/><path fill="#73BE46" d="M720 270l-15 45h30"/><path fill="#FCB813" d="M630 0l-15 45h30M630 180l-15 45h30"/><path fill="#00AAE6" d="M660 0l-15 45h30M660 180l-15 45h30"/><path fill="#FCB813" d="M690 0l-15 45h30"/><path fill="#CD148C" d="M690 180l-15 45h30M720 0l-15 45h30"/><path fill="#FCB813" d="M720 180l-15 45h30M705 45l15-45h-30"/><path fill="#73BE46" d="M705 225l15-45h-30"/><path fill="#FCB813" d="M675 45l15-45h-30M675 225l15-45h-30M645 45l15-45h-30M645 225l15-45h-30"/><path fill="#73BE46" d="M615 45l15-45h-30"/><path fill="#FCB813" d="M615 225l15-45h-30M705 135l15-45h-30M705 315l15-45h-30M675 135l15-45h-30M675 315l15-45h-30M645 135l15-45h-30"/><path fill="#00AAE6" d="M645 315l15-45h-30M615 135l15-45h-30"/><path fill="#FCB813" d="M615 315l15-45h-30"/><path fill="#00AAE6" d="M720 90l15-45h-30M720 270l15-45h-30"/><path fill="#73BE46" d="M690 90l15-45h-30"/><path fill="#FCB813" d="M690 270l15-45h-30M660 90l15-45h-30M660 270l15-45h-30M630 90l15-45h-30"/><path fill="#73BE46" d="M630 270l15-45h-30M720 180l15-45h-30"/><path fill="#00AAE6" d="M720 360l15-45h-30"/><path fill="#CD148C" d="M690 180l15-45h-30"/><path fill="#00AAE6" d="M690 360l15-45h-30"/><path fill="#FCB813" d="M660 180l15-45h-30M660 360l15-45h-30M630 180l15-45h-30M630 360l15-45h-30"/></g></svg>